<svg id="Capa_1" data-name="Capa 1" xmlns="http://www.w3.org/2000/svg" viewBox="0 0 19.01 26"><defs><style>.cls-1{fill:#fff;}.cls-2{fill:#ccc;}</style></defs><path d="M19,8a2.69,2.69,0,0,0-.6-1.69,5.67,5.67,0,0,0-.48-.5c-.16-.16-.31-.32-.47-.46a2.68,2.68,0,0,0-1.66-.66H14.45s0,0,0,0,0-1.28,0-1.37A.42.42,0,0,1,14.64,3a.42.42,0,0,1,.27-.07h.25a.33.33,0,0,0,.25-.08.37.37,0,0,0,.1-.32V.92A.31.31,0,0,0,15.4.69L15,.27c-.11-.12-.22-.27-.4-.27H10.22a.3.3,0,0,0-.2.28V.35c0,.32,0,1.65,0,1.74a.67.67,0,0,0,.11.14l.11.1.21.21.21.21a.34.34,0,0,0,.3.13s0,0,0,0V4.66s0,0,0,0-6,0-6.09,0H4.77a.29.29,0,0,0-.2.28v1.5a.72.72,0,0,0,0,.29.41.41,0,0,0,.12.14,6.93,6.93,0,0,0,.68.64h.15s0,0,0,0,0,5.19,0,5.28c-.2-.19-.39-.39-.59-.59a.33.33,0,0,0-.25-.11H.29a.29.29,0,0,0-.29.28V14.1a.45.45,0,0,0,.2.32l.44.44a.48.48,0,0,0,.2.15H1v0c0,.12,0,2.63,0,3a3.26,3.26,0,0,0,0,.54,2.88,2.88,0,0,0,.45,1.17,5,5,0,0,0,.69.77,5,5,0,0,0,.77.68,2.88,2.88,0,0,0,1.17.45,5.56,5.56,0,0,0,.71,0h.74s0,0,0,0,0,.73,0,.95a.4.4,0,0,1-.18.33.6.6,0,0,1-.39.09.41.41,0,0,0-.37.12.35.35,0,0,0-.06.22V25a.36.36,0,0,0,.09.26l.59.58a.33.33,0,0,0,.24.12H15c.24,0,.48,0,.71,0a3.66,3.66,0,0,0,3.16-2.51A4,4,0,0,0,19,22.24V15.9a2.62,2.62,0,0,0-.25-1.13l-.16-.29a.51.51,0,0,0-.09-.13.18.18,0,0,0-.05-.07l-.05-.07s0,0,0,0l0,0,0-.07.09-.15.15-.32A3.6,3.6,0,0,0,19,12.27Zm-3.43,3.15a1.44,1.44,0,0,1-.73,1.25,1.16,1.16,0,0,1-.4.16V7.92h1.13s0,0,0,0v3.18ZM9.3,7.92H11a.76.76,0,0,0,0,.26c0,.15,0,4.39,0,4.4H9.34s0,0,0,0,0-4.31,0-4.61Zm0,13.79h1.45a3.64,3.64,0,0,0,1-.14A3.77,3.77,0,0,0,14.31,19a4.45,4.45,0,0,0,.14-1v-.3c0-.43,0-1.89,0-1.89h1.13s0,0,0,0v5.33a1.45,1.45,0,0,1-.41.86,1.41,1.41,0,0,1-.83.42H9.39s-.05,0-.07,0,0,0,0,0Zm0-5.87H11s0,0,0,0,0,.68,0,1a1.83,1.83,0,0,1,0,.33,1.21,1.21,0,0,1-.26.59,1.32,1.32,0,0,1-1.05.49H9.31s0-2.16,0-2.37ZM5.57,18.23h-1s0,0,0,0V15.49a.47.47,0,0,1,.21-.41A.58.58,0,0,1,5.1,15h.52c.08,0,0,.14,0,.25v3Z"/><path class="cls-1" d="M18.09,7.37A2.39,2.39,0,0,0,15.7,5H13.53V2.69A.73.73,0,0,1,14.25,2h.34V.3H10.31V2h.26a.74.74,0,0,1,.74.73V5H4.86V6.64h.26a.73.73,0,0,1,.74.68v11.2H4.41a.72.72,0,0,1-.72-.72v-3h0a.72.72,0,0,1,.71-.7h.35V12.44H.29v1.67H.55a.74.74,0,0,1,.75.73h0V18.2a2.61,2.61,0,0,0,2.6,2.6h2v1.93a.73.73,0,0,1-.74.68H4.86v1.67h9.88a3.35,3.35,0,0,0,3.35-3.35V15.28a2.39,2.39,0,0,0-.68-1.68,3.33,3.33,0,0,0,.68-2ZM15.88,21.06a1.74,1.74,0,0,1-1.74,1.74H8.39v-2h1.7a3.44,3.44,0,0,0,3.44-3.44V14.92h1.56a.79.79,0,0,1,.79.79Zm0-13.26v3.34a1.73,1.73,0,0,1-1.74,1.73h-.61V7.92H11.31v4.95H8.39V7h6.7A.79.79,0,0,1,15.88,7.8ZM8.39,14.92h2.92v2a1.59,1.59,0,0,1-1.59,1.59H8.39Z"/><path class="cls-2" d="M12,6.87H8.09v6h.3V7h6.7l.18,0a.79.79,0,0,0-.48-.16H12Z"/><rect class="cls-2" x="13.24" y="7.92" width="0.29" height="4.95"/><polygon class="cls-2" points="8.09 18.39 8.39 18.39 8.39 14.92 11.31 14.92 11.31 14.78 8.09 14.78 8.09 18.39"/><path class="cls-2" d="M4.86,6.64h.26a.5.5,0,0,1,.17,0,.73.73,0,0,0-.43-.16Z"/><path class="cls-2" d="M4,18.37a.71.71,0,0,1-.27-.57v-3h0a.72.72,0,0,1,.71-.7h.35V12.44h-.3V14H4.11a.73.73,0,0,0-.72.7h0v3A.73.73,0,0,0,4,18.37Z"/><path class="cls-2" d="M18.09,7.37a2.4,2.4,0,0,0-1.52-2.24,2.39,2.39,0,0,1,1.23,2.1v4.2a3.32,3.32,0,0,1-.69,2,2.37,2.37,0,0,1,.69,1.68V21.6a3.34,3.34,0,0,1-3.35,3.34H4.86v.14h9.88a3.35,3.35,0,0,0,3.35-3.35V15.28a2.39,2.39,0,0,0-.68-1.68,3.33,3.33,0,0,0,.68-2Z"/><path class="cls-2" d="M8.23,20.66H3.61a2.62,2.62,0,0,1-1-.19,2.6,2.6,0,0,0,1.26.33H8.23Z"/><path class="cls-2" d="M.29,14v.14H.55a.5.5,0,0,1,.17,0A.73.73,0,0,0,.29,14Z"/><path class="cls-2" d="M10.73,2a.77.77,0,0,0-.42-.16V2h.26Z"/><path class="cls-2" d="M8.39,20.8h1.7a3.44,3.44,0,0,0,3.44-3.44V14.92h1.56l.18,0a.79.79,0,0,0-.48-.16H13.24v2.44A3.44,3.44,0,0,1,9.8,20.66H8.09V22.8h.3Z"/><path class="cls-2" d="M14.3,1.82H14a.73.73,0,0,0-.72.73V4.83h.29V2.69A.73.73,0,0,1,14.25,2h.34V.3H14.3Z"/><rect x="5.12" y="20.8" width="4.18" height="0.92"/><rect x="5.86" y="18.23" width="2.61" height="0.29"/><rect x="11.31" y="4.68" width="2.61" height="0.29"/></svg>