<svg id="Layer_1" data-name="Layer 1" xmlns="http://www.w3.org/2000/svg" xmlns:xlink="http://www.w3.org/1999/xlink" viewBox="0 0 39.72 26"><defs><style>.cls-1{fill:url(#Degradado_sin_nombre_5);}.cls-2{fill:#fff;}</style><linearGradient id="Degradado_sin_nombre_5" x1="12.99" y1="11.16" x2="37.38" y2="11.16" gradientUnits="userSpaceOnUse"><stop offset="0" stop-color="#24fa5e"/><stop offset="1" stop-color="#6aec3a"/></linearGradient></defs><path class="cls-1" d="M37.38,12.1A33.23,33.23,0,0,1,25.9,18.59c-4.51,1.55-6.72,1.92-9.27,1.92-1.57,0-3.39,0-3.64,0l.72-13V6.93c-.05-.21.92,0,2.52-.11A18.64,18.64,0,0,0,22,5.65a19.93,19.93,0,0,0,6.37-3.86"/><circle class="cls-2" cx="32.81" cy="6.92" r="6.92"/><path class="cls-2" d="M14.16,12.64c-.19-.84-.36-1.92-.51-3.08h2.61V6.82h-2.9V5.29c0-.82.38-1.2,1.21-1.2h1.69V1.73a4.43,4.43,0,0,0-2-.38c-2.55,0-4.27,1.59-4.27,4v1.5H7.82V9.56h2.47c0,.23.05.47.08.69A67.11,67.11,0,0,0,13,20.51h3.64A78.19,78.19,0,0,1,14.16,12.64Z"/><path class="cls-2" d="M0,25.62V23.26H1.67c.82,0,1.2-.52,1.2-1.64V6.84H6.16V21.62C6.16,24.25,4.52,26,2.08,26A5.44,5.44,0,0,1,0,25.62ZM6.16,3.26A1.65,1.65,0,1,0,4.52,4.9,1.64,1.64,0,0,0,6.16,3.26Z"/></svg>