<svg id="Capa_1" data-name="Capa 1" xmlns="http://www.w3.org/2000/svg" viewBox="0 0 204.04 207"><defs><style>.cls-1{fill:#fff;}</style></defs><path class="cls-1" d="M100.54,207a102.26,102.26,0,0,1-45.93-10.76,2.45,2.45,0,0,1,2.18-4.39,97.44,97.44,0,0,0,43.75,10.25A98.6,98.6,0,1,0,23.66,41.83a2.45,2.45,0,1,1-3.82-3.07A103.48,103.48,0,1,1,100.54,207Z"/><path class="cls-1" d="M100.54,193.34A89.71,89.71,0,0,1,56.86,182a2.45,2.45,0,1,1,2.39-4.28A84.95,84.95,0,1,0,41.94,42.07a2.45,2.45,0,0,1-3.39-3.55,89.83,89.83,0,1,1,62,154.82Z"/><path class="cls-1" d="M100.54,179.66a75.9,75.9,0,0,1-41.43-12.25,2.45,2.45,0,0,1,2.67-4.11,71.22,71.22,0,1,0,38.82-131h-.06A71.26,71.26,0,0,0,63.89,42.4a2.45,2.45,0,1,1-2.53-4.2,76.17,76.17,0,0,1,39.18-10.86h.06a76.16,76.16,0,0,1-.06,152.32Z"/><path class="cls-1" d="M39.13,48.56,37.49,59h-7.4a11.17,11.17,0,0,0-4.54,1,17.43,17.43,0,0,0-4.27,2.68,17.72,17.72,0,0,0-3.34,3.79,11.51,11.51,0,0,0-1.79,4.37l-.79,4.46h10.5l-1.48,8.86H13.8l-3.41,19.32H0L3.41,84.13l1.3-7.39,1-5.93a23.53,23.53,0,0,1,3.32-8.48A30.61,30.61,0,0,1,23.13,50.38a22.59,22.59,0,0,1,8.8-1.82Z"/><path class="cls-1" d="M59.19,103.45l6-35.89H74.3l-5.93,35.89Zm6.44-38.66,1.46-9h9.17l-1.5,9Z"/><path class="cls-1" d="M118,55.75l-5,28.34a21.58,21.58,0,0,1-2.85,7.52A25.25,25.25,0,0,1,105,97.74a25,25,0,0,1-6.89,4.13,20.8,20.8,0,0,1-7.81,1.52A16.84,16.84,0,0,1,83,101.87a15.39,15.39,0,0,1-5.4-4.13,15.58,15.58,0,0,1-3-6.13,17.69,17.69,0,0,1-.2-7.52,21.58,21.58,0,0,1,2.86-7.54A24.7,24.7,0,0,1,89.29,66.26a20.63,20.63,0,0,1,7.79-1.53,17.36,17.36,0,0,1,5.32.78,16.11,16.11,0,0,1,4.47,2.22l2.06-12ZM91.86,94.35a11,11,0,0,0,4.16-.8,13.89,13.89,0,0,0,3.66-2.19,13.08,13.08,0,0,0,2.79-3.27,11.59,11.59,0,0,0,1.51-4,9.48,9.48,0,0,0-.09-4,8.29,8.29,0,0,0-1.65-3.27,7.91,7.91,0,0,0-2.88-2.22,9,9,0,0,0-3.88-.81,11,11,0,0,0-4.13.81,12.51,12.51,0,0,0-3.67,2.22,13.55,13.55,0,0,0-2.76,3.27,11.54,11.54,0,0,0-1.52,4,9.57,9.57,0,0,0,.1,4,8.24,8.24,0,0,0,1.62,3.27A8.11,8.11,0,0,0,88,93.55a9,9,0,0,0,3.86.8"/><path class="cls-1" d="M154.72,84.06l-3.24,19.33h-9l.53-3a24,24,0,0,1-5.27,2.22,20.36,20.36,0,0,1-5.58.77,17,17,0,0,1-7.27-1.52,15.61,15.61,0,0,1-5.46-4.13,15.22,15.22,0,0,1-3.07-6.16,17.79,17.79,0,0,1-.2-7.54A21.63,21.63,0,0,1,119,76.49a24.82,24.82,0,0,1,5.25-6.18,24.44,24.44,0,0,1,6.92-4.16A20.81,20.81,0,0,1,139,64.62a17,17,0,0,1,7.27,1.53,14.94,14.94,0,0,1,5.43,4.16,15.71,15.71,0,0,1,3,6.18,17.79,17.79,0,0,1,0,7.52Zm-21,10.29a11,11,0,0,0,4.13-.8,13.34,13.34,0,0,0,3.69-2.22,13.49,13.49,0,0,0,2.8-3.27,11.52,11.52,0,0,0,1.51-4,9.46,9.46,0,0,0-.09-4.05,8.25,8.25,0,0,0-1.63-3.3,8,8,0,0,0-2.89-2.22,9,9,0,0,0-3.88-.81,11,11,0,0,0-4.16.81A13.43,13.43,0,0,0,126.74,80,11.49,11.49,0,0,0,125.22,84a9.36,9.36,0,0,0,.1,4,8.08,8.08,0,0,0,4.52,5.52,8.94,8.94,0,0,0,3.88.8"/><path class="cls-1" d="M106.44,125.69a20.7,20.7,0,0,1-2.89,7.41,26.34,26.34,0,0,1-12.29,10.43,20.19,20.19,0,0,1-7.72,1.58,17.64,17.64,0,0,1-7.68-1.58,14.67,14.67,0,0,1-8.23-10.43,19.19,19.19,0,0,1-.08-7.41,23.26,23.26,0,0,1,2.7-7.43,23.87,23.87,0,0,1,5-6.21,24.35,24.35,0,0,1,6.88-4.25,21.59,21.59,0,0,1,8.24-1.58,16.33,16.33,0,0,1,7.16,1.58,16.08,16.08,0,0,1,5.46,4.25,16.3,16.3,0,0,1,3.15,6.21,17.15,17.15,0,0,1,.27,7.43m-9,0a8.32,8.32,0,0,0-.21-3.85,9.71,9.71,0,0,0-1.77-3.33,9.37,9.37,0,0,0-2.91-2.36,7.92,7.92,0,0,0-3.7-.88,11.39,11.39,0,0,0-4.52.88,12.71,12.71,0,0,0-3.66,2.36A13.38,13.38,0,0,0,78,121.84a11.93,11.93,0,0,0-1.4,3.85,10.06,10.06,0,0,0,0,3.83,8.25,8.25,0,0,0,1.47,3.33,7.85,7.85,0,0,0,2.83,2.33,9.23,9.23,0,0,0,4.2.89,9.9,9.9,0,0,0,4-.89,15.69,15.69,0,0,0,3.74-2.33,14.59,14.59,0,0,0,2.94-3.33,10.27,10.27,0,0,0,1.57-3.83"/><path class="cls-1" d="M65,117.68a13.39,13.39,0,0,0-8.29-10.07A19.86,19.86,0,0,0,49,106.22q-1.44,0-2.7.06a17.28,17.28,0,0,0-2.49.3,15.64,15.64,0,0,0-2.58.78,22.29,22.29,0,0,0-3.24,1.7l.47-2.84H29.59l-1.13,6.49h0L21.3,156.59h8.86l2.55-15.41c.84.66,1.56,1.17,2.31,1.65a15.27,15.27,0,0,0,2.22,1.22,9.86,9.86,0,0,0,2.31.73,15.52,15.52,0,0,0,2.65.22,21.45,21.45,0,0,0,8.19-1.58,24.35,24.35,0,0,0,6.88-4.25,23.82,23.82,0,0,0,5-6.18,23,23,0,0,0,2.7-7.41,20.54,20.54,0,0,0,0-7.9m-9,7.9a11.89,11.89,0,0,1-1.39,3.8A13.65,13.65,0,0,1,52,132.71a12.71,12.71,0,0,1-3.66,2.36,11.34,11.34,0,0,1-4.51.89,7.64,7.64,0,0,1-3.62-.89,9,9,0,0,1-2.85-2.36,9.84,9.84,0,0,1-1.75-3.33,8.13,8.13,0,0,1-.21-3.8A11.77,11.77,0,0,1,37,121.26a12.87,12.87,0,0,1,6.54-5.33,11.19,11.19,0,0,1,3.9-.72q4.88,0,7.14,2.75t1.4,7.62"/><path class="cls-1" d="M147.84,117.68a13.39,13.39,0,0,0-8.29-10.07,19.86,19.86,0,0,0-7.66-1.39q-1.44,0-2.7.06a17.28,17.28,0,0,0-2.49.3,15.64,15.64,0,0,0-2.58.78,22.36,22.36,0,0,0-3.25,1.7l.47-2.84h-8.9l-1.13,6.49h0l-7.18,43.88H113l2.55-15.41c.84.66,1.56,1.17,2.3,1.65a15.9,15.9,0,0,0,2.23,1.22,9.71,9.71,0,0,0,2.31.73,15.52,15.52,0,0,0,2.65.22,21.45,21.45,0,0,0,8.19-1.58,24.15,24.15,0,0,0,6.87-4.25,23.85,23.85,0,0,0,5-6.18,22.72,22.72,0,0,0,2.69-7.41,20.55,20.55,0,0,0,0-7.9m-9,7.9a11.89,11.89,0,0,1-1.39,3.8,13.65,13.65,0,0,1-2.64,3.33,12.71,12.71,0,0,1-3.66,2.36,11.38,11.38,0,0,1-4.51.89,7.64,7.64,0,0,1-3.62-.89,9.18,9.18,0,0,1-2.86-2.36,9.82,9.82,0,0,1-1.74-3.33,8.26,8.26,0,0,1-.22-3.8,12,12,0,0,1,1.66-4.32,12.77,12.77,0,0,1,2.9-3.28,13.25,13.25,0,0,1,3.64-2,11.19,11.19,0,0,1,3.9-.72q4.88,0,7.14,2.75c1.51,1.83,2,4.37,1.4,7.62"/><path class="cls-1" d="M60.28,65.59a15.65,15.65,0,0,0-5.51-1,13.1,13.1,0,0,0-2.21.22c-.8.15-1.63.35-2.48.58s-1.7.52-2.54.84-2,.78-2.68,1.11l.46-2.75H36.47L34.13,78.77,30,103.45h8.84l3.65-20.69a10.47,10.47,0,0,1,1.33-3.61,11.33,11.33,0,0,1,2.39-2.88,10.83,10.83,0,0,1,3.19-1.91,10.08,10.08,0,0,1,3.73-.7,11,11,0,0,1,1.89.17,6,6,0,0,1,2,.76l5.37-7.88a10.74,10.74,0,0,0-2.19-1.12"/></svg>