<svg id="Layer_1" data-name="Layer 1" xmlns="http://www.w3.org/2000/svg" xmlns:xlink="http://www.w3.org/1999/xlink" viewBox="0 0 335.86 56"><defs><style>.cls-1{fill:url(#Degradado_sin_nombre_5);}.cls-2{fill:#fff;}</style><linearGradient id="Degradado_sin_nombre_5" x1="265.3" y1="28.45" x2="328.14" y2="28.45" gradientUnits="userSpaceOnUse"><stop offset="0" stop-color="#24fa5e"/><stop offset="1" stop-color="#6aec3a"/></linearGradient></defs><rect class="cls-1" x="265.3" y="12.58" width="62.84" height="31.73"/><path class="cls-2" d="M0,55.12V49.71H3.83c1.89,0,2.77-1.19,2.77-3.77V12h7.54V45.94C14.14,52,10.37,56,4.78,56A12.5,12.5,0,0,1,0,55.12ZM14.14,3.77a3.77,3.77,0,1,0-3.77,3.77A3.77,3.77,0,0,0,14.14,3.77Z"/><path class="cls-2" d="M50.34,43.43H42.7V41.1A13.43,13.43,0,0,1,34,44.31c-8.72,0-14.52-5.09-14.52-12.76V12h7.64V30.67c0,4.21,3.13,7,7.78,7s7.77-2.77,7.77-7V12h7.64Z"/><path class="cls-2" d="M54.38,27.72c0-9.93,6.63-16.6,16.58-16.6A14.9,14.9,0,0,1,81.28,15.4V12h7.65V43.43H81.28V40A14.94,14.94,0,0,1,71,44.31C61,44.31,54.38,37.65,54.38,27.72Zm26.9,0c0-6-3.82-9.93-9.56-9.93S62,21.75,62,27.72s3.89,9.93,9.69,9.93S81.28,33.69,81.28,27.72Z"/><path class="cls-2" d="M94.38,12.88h7.7v2.33A13.62,13.62,0,0,1,110.81,12c8.79,0,14.64,5.1,14.64,12.76V44.31h-7.71V25.64c0-4.21-3.14-7-7.83-7s-7.83,2.76-7.83,7V44.31h-7.7Z"/><path class="cls-2" d="M134.65,19.17h-5.09V12.88h5.09V9.43c0-5.47,3.94-9.12,9.79-9.12,1.34,0,3.63.26,4.52.88V6.6h-3.88c-1.91,0-2.8.88-2.8,2.76v3.52H149v6.29h-6.68V44.31h-7.63Z"/><path class="cls-2" d="M182.14,43.44h-7.41V41.16a13,13,0,0,1-8.41,3.15c-8.46,0-14.09-5-14.09-12.55V12.54h7.42V30.9c0,4.14,3,6.86,7.54,6.86s7.54-2.72,7.54-6.86V12.54h7.41Z"/><path class="cls-2" d="M219.5,40v3.46H212V.31h7.54V15.46a15,15,0,0,1,10.43-4.34c9.93,0,16.59,6.67,16.59,16.6s-6.66,16.59-16.59,16.59A15,15,0,0,1,219.5,40ZM239,27.72c0-6-3.9-9.93-9.8-9.93s-9.68,4-9.68,9.93,3.89,9.93,9.68,9.93S239,33.69,239,27.72Z"/><path class="cls-2" d="M205.76,38h-3.84a2.57,2.57,0,0,1-2.76-2.64V18.29h6.6V12h-6.6V.31h-7.55V12h-5v6.29h5V35.38c0,5.35,4.15,8.93,10.44,8.93a18.55,18.55,0,0,0,3.71-.38Z"/><circle class="cls-2" cx="266.36" cy="28.43" r="15.88"/><path class="cls-2" d="M328.19,1.23s-.92,17.16-2.74,25a177.42,177.42,0,0,1-5.67,18.06h8.36s5-14.71,6-23.55,1.7-19.53,1.7-19.53Z"/></svg>