<svg id="Layer_1" data-name="Layer 1" xmlns="http://www.w3.org/2000/svg" viewBox="0 0 309.14 94"><defs><style>.cls-1,.cls-4{fill:#ffb339;}.cls-2,.cls-3{fill:#02192f;}.cls-3,.cls-4{fill-rule:evenodd;}.cls-5{fill:#fff;}</style></defs><path class="cls-1" d="M106.92,39.57c0-.76-.08-1.54-.08-2.32,0-17,13.12-30.84,29.3-30.84,15.85,0,28.76,13.26,29.28,29.82Z"/><polygon class="cls-1" points="214.36 85.45 223.04 85.19 221.99 93.61 212.78 94 214.36 85.45"/><path class="cls-2" d="M238.44,85l6.31.4a11,11,0,0,1-2.17,3.52,10,10,0,0,1-3.36,2.4,13.34,13.34,0,0,1-4.86,1,16.55,16.55,0,0,1-4.58-.29A6.38,6.38,0,0,1,225,88a8.81,8.81,0,0,1-.25-4.08,11,11,0,0,1,1.49-4.51A10.23,10.23,0,0,1,228.42,77,10.89,10.89,0,0,1,231,75.29a14.85,14.85,0,0,1,5.13-1.05c2.86-.14,5,.25,6.35,1.19a6.33,6.33,0,0,1,2.61,4.3l-6.43,1.14a2.24,2.24,0,0,0-.87-1.61,3.06,3.06,0,0,0-2-.46,4,4,0,0,0-2.85,1.32,6.23,6.23,0,0,0-1.49,3.64,4.08,4.08,0,0,0,.62,3.2,2.86,2.86,0,0,0,2.47,1,4.21,4.21,0,0,0,2.3-.79A5,5,0,0,0,238.44,85Z"/><path class="cls-2" d="M245.77,82.58a10.42,10.42,0,0,1,3.53-6.69,12,12,0,0,1,7.63-3c3.51-.17,6,.7,7.58,2.63a7.54,7.54,0,0,1,1.41,5.89,10.43,10.43,0,0,1-3.51,6.71,12.08,12.08,0,0,1-7.74,2.93q-4.23.21-6.57-1.78A7.16,7.16,0,0,1,245.77,82.58Zm6.74-.35a4.61,4.61,0,0,0,.51,3.38,2.52,2.52,0,0,0,2.25,1,3.63,3.63,0,0,0,2.52-1.22,6.27,6.27,0,0,0,1.37-3.56,4.51,4.51,0,0,0-.52-3.32,2.44,2.44,0,0,0-2.18-1,3.7,3.7,0,0,0-2.57,1.25A6,6,0,0,0,252.51,82.23Z"/><path class="cls-2" d="M269.24,72.84l6.28-.32-.32,2.53a11.22,11.22,0,0,1,3-2.39,8.61,8.61,0,0,1,3.42-.84,5.79,5.79,0,0,1,3.23.57,4.32,4.32,0,0,1,1.73,2.09A12.69,12.69,0,0,1,289.77,72a8.35,8.35,0,0,1,3.3-.77,4.89,4.89,0,0,1,4.19,1.44q1.38,1.57.93,5.11l-1.37,10.91-6.74.34,1.25-9.9a2.54,2.54,0,0,0-.25-1.73,1.64,1.64,0,0,0-1.56-.81,2.89,2.89,0,0,0-2,.94,4.89,4.89,0,0,0-1.06,2.77l-1.13,9-6.74.34,1.2-9.58a5.88,5.88,0,0,0,.07-1.54,1.69,1.69,0,0,0-.62-1,1.74,1.74,0,0,0-1.19-.34,2.91,2.91,0,0,0-2,1A5.13,5.13,0,0,0,274.91,81l-1.11,8.87-6.74.33Z"/><path class="cls-3" d="M304.12,80.59a4.28,4.28,0,1,1-4.21,4.29,4.25,4.25,0,0,1,4.21-4.29Zm0,9.39a5.11,5.11,0,1,0-5-5.1,5,5,0,0,0,5,5.1Zm.86-4.85a1.44,1.44,0,0,0,1.52-1.57c0-1.21-.92-1.52-1.94-1.52h-2.37v5.75H303V85.13H304l1.43,2.66h.93L305,85.13Zm-.57-2.25c.68,0,1.27.05,1.26.77s-1,.65-1.8.65H303V82.88Z"/><path class="cls-4" d="M136.92,40.73,275,34.26l-5.59,34.26H265v2.27a16.18,16.18,0,0,0-19,2.1s-8.56-6.64-16.6-1.75c0,0-5.77,3-7.51,8.21L12,89.84l.87-4,118-6.29Z"/><path class="cls-2" d="M128.56,3.64C112.22,6.28,99.7,21.18,99.7,39.18v.2L7.27,43.82,0,86.38l130.86-6.85,6.06-38.8,127.45-5.95,1.42-4.26-95,5V35.4a35.55,35.55,0,0,0-3.51-12.15l-.17-.31a35.34,35.34,0,0,1,2.19,12.26l0,.38h-.12l-7,.37c-.78-14.43-12.07-25.87-25.89-25.87-14.33,0-25.94,12.3-25.94,27.47,0,.44,0,.88,0,1.31l-7.55.36v-.11c0-.38,0-.76,0-1.15,0-16.54,10.79-30.43,25.36-34.22"/><path class="cls-1" d="M96.37,35A36,36,0,0,1,114.66,4.3l-3-4.3A36,36,0,0,0,96.32,34.6Z"/><path class="cls-2" d="M148.67,45.22l-1.24,6.56,3.7,0-.92,4.82-3.7,0-1.15,6.09a3.07,3.07,0,0,0-.06,1.46,1,1,0,0,0,1,.56,8.07,8.07,0,0,0,2.17-.39l-.36,4.55a23.34,23.34,0,0,1-4.77.48,7.55,7.55,0,0,1-3.59-.67,3.06,3.06,0,0,1-1.4-1.94,11,11,0,0,1,.22-4.17l1.15-6,.91-4.83.6-3.16Z"/><path class="cls-2" d="M155,44.9l6.72-.27-.62,4.55-6.72.26Zm-.9,6.62,6.72-.27-2.36,17.34-6.72.27Z"/><path class="cls-2" d="M182.81,60.61l-14.34.72a3.92,3.92,0,0,0,.62,2.5,2.83,2.83,0,0,0,2.55,1.06,4.63,4.63,0,0,0,2.08-.62A6,6,0,0,0,175.11,63l6.95.3a13,13,0,0,1-4.4,4.19,16,16,0,0,1-6.7,1.54,12.43,12.43,0,0,1-5.7-.75,6.56,6.56,0,0,1-3.11-3.11,8.92,8.92,0,0,1-.73-5.23,11.22,11.22,0,0,1,3.68-7.15,14.91,14.91,0,0,1,14.25-2.19,6.38,6.38,0,0,1,3.09,3.3,11.69,11.69,0,0,1,.47,5.87Zm-6.84-3a4,4,0,0,0-.75-2.88,2.77,2.77,0,0,0-2.27-.77,3.94,3.94,0,0,0-2.89,1.48,5.63,5.63,0,0,0-1.14,2.52Z"/><path class="cls-2" d="M186.16,49.31l6.72-.34-.34,2.71a12.16,12.16,0,0,1,3.23-2.56,9.05,9.05,0,0,1,3.66-.9,6.25,6.25,0,0,1,3.46.61,4.55,4.55,0,0,1,1.85,2.23,14.14,14.14,0,0,1,3.4-2.63,8.82,8.82,0,0,1,3.52-.82,5.26,5.26,0,0,1,4.49,1.53q1.47,1.7,1,5.48l-1.47,11.67-7.21.37,1.33-10.59a2.67,2.67,0,0,0-.26-1.85,1.79,1.79,0,0,0-1.68-.88,3.07,3.07,0,0,0-2.15,1,5.16,5.16,0,0,0-1.14,3l-1.21,9.59-7.21.37L197.44,57a6.11,6.11,0,0,0,.06-1.65,1.75,1.75,0,0,0-.65-1.09,1.89,1.89,0,0,0-1.28-.37,3.13,3.13,0,0,0-2.16,1A5.4,5.4,0,0,0,192.23,58L191,67.53l-7.21.37Z"/><path class="cls-2" d="M218.07,71.67l3.18-24.38,6.56-.33-.34,2.61a11.58,11.58,0,0,1,2.8-2.36,8.35,8.35,0,0,1,3.5-1q3.69-.18,5.34,2.43a9.62,9.62,0,0,1,1.14,6.6,11.24,11.24,0,0,1-3.07,6.84,8.8,8.8,0,0,1-5.85,2.6,7.17,7.17,0,0,1-2.89-.39,5.42,5.42,0,0,1-2.19-1.46l-1.1,8.43Zm9.05-15.86a4,4,0,0,0,.51,3.07,2.49,2.49,0,0,0,2.19.89A3.17,3.17,0,0,0,232,58.7a5.94,5.94,0,0,0,1.26-3.34,4.23,4.23,0,0,0-.45-3.11,2.22,2.22,0,0,0-2-.9,3.5,3.5,0,0,0-2.38,1.13A5.74,5.74,0,0,0,227.12,55.81Z"/><path class="cls-2" d="M241.58,55.52a11.07,11.07,0,0,1,3.76-7.12,12.75,12.75,0,0,1,8.13-3.14c3.73-.19,6.42.75,8.06,2.8a8,8,0,0,1,1.5,6.27,11.17,11.17,0,0,1-3.73,7.14,12.91,12.91,0,0,1-8.24,3.12q-4.5.22-7-1.9A7.61,7.61,0,0,1,241.58,55.52Zm7.17-.38a5,5,0,0,0,.55,3.61,2.64,2.64,0,0,0,2.39,1,3.81,3.81,0,0,0,2.68-1.29,6.71,6.71,0,0,0,1.47-3.79,4.82,4.82,0,0,0-.56-3.53,2.57,2.57,0,0,0-2.32-1,3.89,3.89,0,0,0-2.73,1.32A6.46,6.46,0,0,0,248.75,55.14Z"/><path class="cls-5" d="M16.88,57.28,23.42,57l-.33,2.63a11.57,11.57,0,0,1,3.15-2.49,8.77,8.77,0,0,1,3.56-.88,6.13,6.13,0,0,1,3.37.59A4.42,4.42,0,0,1,35,59a13.83,13.83,0,0,1,3.31-2.56,8.84,8.84,0,0,1,3.44-.81,5.1,5.1,0,0,1,4.37,1.5q1.44,1.65,1,5.33L45.63,73.83l-7,.35L39.9,63.86a2.56,2.56,0,0,0-.25-1.8A1.74,1.74,0,0,0,38,61.21a3,3,0,0,0-2.1,1,5,5,0,0,0-1.11,2.89l-1.18,9.34-7,.36,1.25-10a5.89,5.89,0,0,0,.06-1.62,1.75,1.75,0,0,0-.63-1.06A1.8,1.8,0,0,0,26,61.78a3,3,0,0,0-2.1,1,5.36,5.36,0,0,0-1.15,3L21.63,75l-7,.35Z"/><path class="cls-5" d="M71,65.26,57,66a3.9,3.9,0,0,0,.6,2.45,2.81,2.81,0,0,0,2.51,1,4.56,4.56,0,0,0,2-.62,5.77,5.77,0,0,0,1.37-1.2l6.81.29A12.74,12.74,0,0,1,66,72a15.6,15.6,0,0,1-6.57,1.51,12.16,12.16,0,0,1-5.59-.73,6.43,6.43,0,0,1-3-3,8.7,8.7,0,0,1-.72-5.13,11,11,0,0,1,3.61-7,12.43,12.43,0,0,1,7.91-3,12.39,12.39,0,0,1,6.05.87,6.09,6.09,0,0,1,3,3.23,11.35,11.35,0,0,1,.46,5.75Zm-6.7-3a3.93,3.93,0,0,0-.73-2.82,2.71,2.71,0,0,0-2.23-.75,3.9,3.9,0,0,0-2.84,1.45,5.68,5.68,0,0,0-1.11,2.47Z"/><path class="cls-5" d="M95.7,46.45l-3.14,25L86,71.8l.33-2.68a11,11,0,0,1-2.8,2.43,8.23,8.23,0,0,1-3.48,1q-3.74.18-5.36-2.53a10.33,10.33,0,0,1-1.11-6.74,11.63,11.63,0,0,1,3-7,8.59,8.59,0,0,1,5.84-2.67,7.24,7.24,0,0,1,2.91.4,5.36,5.36,0,0,1,2.16,1.52l1.09-8.68Zm-9,16.27a4.24,4.24,0,0,0-.52-3.13A2.43,2.43,0,0,0,84,58.66a3.1,3.1,0,0,0-2.18,1.11,6.13,6.13,0,0,0-1.25,3.41A4.54,4.54,0,0,0,81,66.39a2.22,2.22,0,0,0,2,.92,3.44,3.44,0,0,0,2.37-1.15A6,6,0,0,0,86.69,62.72Z"/><path class="cls-5" d="M100.21,46.23l7-.36-.59,4.75-7,.35Zm-.86,6.9,7-.35-2.27,18.11-7,.35Z"/><path class="cls-5" d="M107.88,61.47a10.87,10.87,0,0,1,3.68-7,12.51,12.51,0,0,1,8-3.07c3.66-.18,6.3.73,7.9,2.74a7.9,7.9,0,0,1,1.47,6.15,11,11,0,0,1-3.65,7,12.68,12.68,0,0,1-8.08,3.06q-4.41.21-6.85-1.86A7.47,7.47,0,0,1,107.88,61.47Zm7-.37a4.82,4.82,0,0,0,.53,3.53,2.62,2.62,0,0,0,2.34,1,3.73,3.73,0,0,0,2.63-1.27,6.54,6.54,0,0,0,1.44-3.72,4.79,4.79,0,0,0-.54-3.45,2.53,2.53,0,0,0-2.29-1,3.82,3.82,0,0,0-2.67,1.29A6.35,6.35,0,0,0,114.91,61.1Z"/><path class="cls-5" d="M117,22.71l4.44,9.75-5.61,6.38L129,38l-2.39-4.33,9.1-8.67,10.72,5.64-1.62,5.95,14-.75-.11-2.17-8.88-4.33,1.63-10.94s-5.31-4.44-9.53-5.31l-6.94,6.28-8.23-4.65S122.48,15.58,117,22.71Z"/></svg>