<svg xmlns="http://www.w3.org/2000/svg" viewBox="0 0 293.29 111"><defs><style>.cls-1{fill:#ff3b34;}.cls-2{fill:#fff;}</style></defs><g id="Capa_1" data-name="Capa 1"><rect x="7.36" y="10.06" width="275.15" height="90.18"/><path class="cls-1" d="M0,0V111H293.29V0ZM279.22,96.93H14.07V14.07H279.22Z"/><path class="cls-2" d="M52.76,28.33H28.14V82.65H42.07V64.09H52.76C66.91,64.09,72,54.86,72,46.21S66.91,28.33,52.76,28.33ZM42.07,39.73h7.58c6.28,0,8.73,1.81,8.73,6.48s-2.45,6.49-8.73,6.49H42.07Z"/><polygon class="cls-2" points="90.44 60.39 115.53 60.39 115.53 49 90.44 49 90.44 40.45 117.78 40.45 117.78 28.33 76.51 28.33 76.51 82.66 118.36 82.66 118.36 70.54 90.44 70.54 90.44 60.39"/><polygon class="cls-2" points="156.57 60.12 136.79 28.33 123.5 28.33 123.5 82.66 136.71 82.66 136.71 50.95 156.41 82.66 169.77 82.66 169.77 28.33 156.57 28.33 156.57 60.12"/><polygon class="cls-2" points="218.14 28.33 173.18 28.33 173.18 40.45 188.69 40.45 188.69 82.66 202.62 82.66 202.62 40.45 218.14 40.45 218.14 28.33"/><path class="cls-2" d="M244.15,28.33H230.71L210.1,82.65h14.27l4.06-11.52H246l3.92,11.52h14.56Zm-2,31.77H232.3l5-14.08Z"/></g></svg>