<svg xmlns="http://www.w3.org/2000/svg" xmlns:xlink="http://www.w3.org/1999/xlink" viewBox="0 0 338.65 87"><defs><style>.cls-1{fill:url(#linear-gradient);}.cls-2{fill:url(#linear-gradient-2);}.cls-3{fill:#fff;}.cls-4{fill:#f6e748;}</style><linearGradient id="linear-gradient" x1="16.66" y1="35.22" x2="68.15" y2="3.25" gradientUnits="userSpaceOnUse"><stop offset="0.08" stop-color="#f6e748"/><stop offset="0.1" stop-color="#f5e347"/><stop offset="0.53" stop-color="#e39d38"/><stop offset="0.84" stop-color="#d8712f"/><stop offset="1" stop-color="#d4602b"/></linearGradient><linearGradient id="linear-gradient-2" x1="83.43" y1="8.83" x2="70.22" y2="82.57" gradientUnits="userSpaceOnUse"><stop offset="0" stop-color="#f6e748"/><stop offset="1" stop-color="#d4602b"/></linearGradient></defs><g id="Layer_1" data-name="Layer 1"><path class="cls-1" d="M48.16,1.39C20.4-1.55-13.24,0,5.35,7.58c8.15,3.32,24.06,6.16,45.17,14,21.61,8,30.7,16.06,30.7,16.06s8.22-14.5-3.78-20S48.16,1.39,48.16,1.39Z"/><path class="cls-2" d="M46.75,1.28s33.67,26.65,34.42,38.1c1,16-15.79,47.31-10.25,47.62s34.23-24.61,43.15-44-2.54-28.84-13.95-33C86.29,4.86,46.75,1.28,46.75,1.28Z"/><path class="cls-3" d="M145.74,27.52v8.33h8.1v6.26h-8.16V54.79c0,2.8,1.55,4.17,3.81,4.17a8.23,8.23,0,0,0,3.52-.89l2,6.19a16.09,16.09,0,0,1-6,1.25c-6.37.24-10.54-3.39-10.54-10.72V42.11H133V35.85h5.48V28.29Z"/><rect class="cls-3" x="159.26" y="35.68" width="7.27" height="29.48"/><path class="cls-4" d="M211.34,27.52c0,5.22-7.92,5.22-7.92,0S211.34,22.29,211.34,27.52Z"/><rect class="cls-3" x="203.75" y="35.68" width="7.27" height="29.48"/><path class="cls-4" d="M227.81,27.52v8.33h8.1v6.26h-8.16V54.79c0,2.8,1.55,4.17,3.81,4.17a8.23,8.23,0,0,0,3.52-.89l2,6.19a16.09,16.09,0,0,1-6,1.25c-6.38.24-10.54-3.39-10.54-10.72V42.11h-5.48V35.85h5.48V28.29Z"/><path class="cls-4" d="M264.62,35.79h7V65.16h-6.85l-.36-4.29c-1.67,3.45-6.25,5.12-9.53,5.18-8.7.06-15.13-5.3-15.13-15.6,0-10.13,6.73-15.43,15.31-15.37,3.93,0,7.68,1.85,9.35,4.76ZM247,50.45c0,5.59,3.87,8.93,8.69,8.93,11.44,0,11.44-17.81,0-17.81C250.86,41.57,247,44.85,247,50.45Z"/><path class="cls-4" d="M331.68,35.79h7V65.16H331.8l-.36-4.29c-1.67,3.45-6.25,5.12-9.53,5.18-8.69.06-15.13-5.3-15.13-15.6,0-10.13,6.73-15.43,15.31-15.37,3.93,0,7.68,1.85,9.35,4.76ZM314.05,50.45c0,5.59,3.87,8.93,8.7,8.93,11.43,0,11.43-17.81,0-17.81C317.92,41.57,314.05,44.85,314.05,50.45Z"/><polygon class="cls-3" points="186.78 49.61 198.75 36.21 198.75 35.8 190.05 35.8 180.17 47.59 180.17 26.88 172.9 27.68 172.9 65.16 180.17 65.16 180.17 51.88 191.66 65.16 200.41 65.16 200.41 64.62 186.78 49.61"/><polygon class="cls-4" points="291.42 49.61 303.39 36.21 303.39 35.8 294.69 35.8 284.81 47.59 284.81 26.83 277.54 27.62 277.54 65.16 284.81 65.16 284.81 51.88 296.3 65.16 305.06 65.16 305.06 64.62 291.42 49.61"/><polygon class="cls-4" points="167.19 25.74 165.11 23.66 163.21 25.56 161.31 23.66 159.23 25.74 161.13 27.64 159.23 29.54 161.31 31.62 163.21 29.72 165.11 31.62 167.19 29.54 165.29 27.64 167.19 25.74"/></g></svg>