<svg xmlns="http://www.w3.org/2000/svg" xmlns:xlink="http://www.w3.org/1999/xlink" viewBox="0 0 117.26 87"><defs><style>.cls-1{fill:url(#linear-gradient);}.cls-2{fill:url(#linear-gradient-2);}</style><linearGradient id="linear-gradient" x1="16.66" y1="35.22" x2="68.15" y2="3.25" gradientUnits="userSpaceOnUse"><stop offset="0.08" stop-color="#f6e748"/><stop offset="0.1" stop-color="#f5e347"/><stop offset="0.53" stop-color="#e39d38"/><stop offset="0.84" stop-color="#d8712f"/><stop offset="1" stop-color="#d4602b"/></linearGradient><linearGradient id="linear-gradient-2" x1="83.43" y1="8.83" x2="70.22" y2="82.57" gradientUnits="userSpaceOnUse"><stop offset="0" stop-color="#f6e748"/><stop offset="1" stop-color="#d4602b"/></linearGradient></defs><g id="Layer_1" data-name="Layer 1"><path class="cls-1" d="M48.16,1.39C20.4-1.55-13.24,0,5.35,7.58c8.15,3.32,24.06,6.16,45.17,14,21.61,8,30.7,16.06,30.7,16.06s8.22-14.5-3.78-20S48.16,1.39,48.16,1.39Z"/><path class="cls-2" d="M46.75,1.28s33.67,26.65,34.42,38.1c1,16-15.79,47.31-10.25,47.62s34.23-24.61,43.15-44-2.54-28.84-13.95-33C86.29,4.86,46.75,1.28,46.75,1.28Z"/></g></svg>