<?xml version="1.0" encoding="utf-8"?>
<!-- Generator: Adobe Illustrator 17.0.0, SVG Export Plug-In . SVG Version: 6.00 Build 0)  -->
<!DOCTYPE svg PUBLIC "-//W3C//DTD SVG 1.1//EN" "http://www.w3.org/Graphics/SVG/1.1/DTD/svg11.dtd">
<svg version="1.1" id="Layer_1" xmlns="http://www.w3.org/2000/svg" xmlns:xlink="http://www.w3.org/1999/xlink" x="0px" y="0px"
	 width="102px" height="138px" viewBox="0 0 102 138" enable-background="new 0 0 102 138" xml:space="preserve">
<path fill-rule="evenodd" clip-rule="evenodd" fill="#D2D3D3" d="M91.483,130.72c0,0-6.215-3.079-12.055-2.441
	c-5.841,0.638-7.494,8.95-7.494,8.95l-17.106-9.764l-21.993-1.953l-13.196-8.95l-7.005-21.48c0,0,0.496-2.618-2.607-3.906
	c-3.103-1.288-5.05-1.79-5.05-1.79l1.14-7.486l-4.887-2.115v-4.557v-3.092l7.005-7.811c0,0,3.916-9.352,6.028-10.252
	c2.112-0.9,1.629,1.952,1.629,1.952S31.16,46.617,32.51,42.845c1.349-3.772,1.633-10.999,4.236-12.042
	c2.603-1.042-2.932-0.976-2.932-0.976s0.787-10.052,4.236-10.089c3.449-0.037,10.915,3.255,10.915,3.255l-4.399-5.858l5.376-5.207
	l-0.815-2.441c0,0,6.704-10.453,8.634-8.462c1.931,1.991,2.281,6.998,2.281,6.998s-6.122,7.029-1.955,10.577
	c4.167,3.548,12.707,5.207,12.707,5.207l0.326,5.533l4.073,9.113c0,0-6.976,8.146,1.14,11.229
	c8.116,3.083,12.381,7.811,12.381,7.811l-0.489,3.255l7.82,7.323c0,0-3.62,9.267-3.258,13.995
	c0.361,4.728-10.426-4.556-10.426-4.556s4.055,6.373,11.404,10.089c7.349,3.716,0.489,3.58,0.489,3.58l6.517,2.604l-7.168,2.441
	l4.236,10.415l-2.77,0.488l2.607,5.207l-5.376,0.814C92.298,113.145,99.59,118.781,91.483,130.72z"/>
<path fill-rule="evenodd" clip-rule="evenodd" fill="#181C23" d="M34.73,54.612c2.209,0,4,1.793,4,4.006s-1.791,4.006-4,4.006
	c-2.209,0-4-1.794-4-4.006S32.521,54.612,34.73,54.612z"/>
</svg>
