<?xml version="1.0" encoding="utf-8"?>
<!-- Generator: Adobe Illustrator 17.0.0, SVG Export Plug-In . SVG Version: 6.00 Build 0)  -->
<!DOCTYPE svg PUBLIC "-//W3C//DTD SVG 1.1//EN" "http://www.w3.org/Graphics/SVG/1.1/DTD/svg11.dtd">
<svg version="1.1" id="Layer_1" xmlns="http://www.w3.org/2000/svg" xmlns:xlink="http://www.w3.org/1999/xlink" x="0px" y="0px"
	 width="240px" height="62px" viewBox="0 0 240 62" enable-background="new 0 0 240 62" xml:space="preserve">
<g>
	<path fill="#FFFFFF" d="M79.713,31.745c0.2,0.712,0.365,1.566,0.494,2.562c0.129,0.997,0.243,2.078,0.344,3.245
		c0.1,1.167,0.172,2.327,0.215,3.48c0.043,1.153,0.079,2.256,0.107,3.309c0.028,1.054,0.043,1.964,0.043,2.733
		c0,1.338-0.101,2.462-0.301,3.373c-0.201,0.911-0.459,1.637-0.774,2.178c-0.316,0.54-0.688,0.925-1.118,1.153
		c-0.43,0.228-0.874,0.342-1.333,0.342c-0.516,0-1.032-0.114-1.548-0.342c-0.516-0.228-0.989-0.505-1.419-0.832
		c-0.43-0.327-0.795-0.677-1.096-1.046c-0.301-0.37-0.494-0.712-0.58-1.025c-1.232,0.54-2.121,1.081-2.666,1.622
		c-0.544,0.541-0.817,1.124-0.817,1.751c0,0.626,0.144,1.167,0.43,1.623c0.287,0.455,0.674,0.832,1.161,1.132
		c0.488,0.299,1.061,0.526,1.72,0.683c0.66,0.156,1.362,0.235,2.107,0.235c1.176,0,2.401-0.185,3.676-0.555
		c1.275-0.37,2.458-0.918,3.547-1.644c1.089-0.726,2.006-1.63,2.752-2.712c0.745-1.082,1.175-2.334,1.29-3.757
		c0.143-1.822,0.286-3.694,0.43-5.615c0.143-1.921,0.265-3.764,0.366-5.53c0.1-1.765,0.179-3.387,0.236-4.868
		c0.057-1.479,0.086-2.704,0.086-3.672c0-0.427-0.15-0.726-0.451-0.897c-0.301-0.17-0.695-0.256-1.182-0.256
		c-0.602,0-1.268,0.1-1.999,0.299c-0.731,0.199-1.426,0.413-2.085,0.641c-0.746,0.285-1.52,0.583-2.322,0.896
		C79.283,30.536,79.512,31.035,79.713,31.745z M84.292,26.131c0.473-0.242,0.874-0.555,1.204-0.939
		c0.329-0.384,0.581-0.818,0.752-1.302c0.172-0.484,0.258-0.968,0.258-1.452c0-0.882-0.301-1.665-0.903-2.348
		c-0.602-0.683-1.577-1.025-2.924-1.025c-0.545,0-1.047,0.128-1.505,0.384c-0.459,0.256-0.86,0.598-1.204,1.025
		c-0.344,0.427-0.617,0.897-0.817,1.409s-0.301,1.025-0.301,1.537c0,0.826,0.294,1.545,0.881,2.156
		c0.587,0.612,1.569,0.918,2.945,0.918C83.282,26.494,83.819,26.373,84.292,26.131z"/>
	<path fill="#FFFFFF" d="M106.561,46.284c-0.301-0.384-0.545-0.897-0.731-1.537c-0.187-0.641-0.323-1.381-0.409-2.22
		c-0.086-0.839-0.129-1.714-0.129-2.626c0-1.11,0.05-2.227,0.151-3.352c0.1-1.124,0.222-2.156,0.365-3.095
		c0.143-0.939,0.301-1.743,0.473-2.413c0.172-0.669,0.344-1.103,0.516-1.302c-0.287-0.398-0.803-0.69-1.548-0.875
		c-0.746-0.185-1.52-0.278-2.322-0.278c-0.746,0-1.397,0.085-1.956,0.256c-0.559,0.171-0.867,0.413-0.924,0.726
		c-0.172,0.854-0.316,1.751-0.43,2.69c-0.115,0.826-0.215,1.751-0.301,2.776c-0.086,1.025-0.129,2.092-0.129,3.203
		c0,0.57,0.014,1.104,0.043,1.601c0.028,0.499,0.071,0.976,0.129,1.431c-0.631,1.168-1.233,1.751-1.806,1.751
		c-0.516,0-0.946-0.448-1.29-1.345c-0.344-0.897-0.516-2.17-0.516-3.822c0-1.024,0.079-2.184,0.236-3.48
		c0.157-1.295,0.423-2.711,0.795-4.248c-0.602-0.113-1.154-0.192-1.655-0.235c-0.502-0.043-0.953-0.064-1.354-0.064
		c-0.832,0-1.498,0.079-1.999,0.235c-0.502,0.156-0.881,0.335-1.139,0.534c-0.316,0.228-0.516,0.47-0.602,0.726
		c-0.058,0.285-0.122,0.691-0.194,1.217c-0.072,0.527-0.144,1.139-0.215,1.836c-0.072,0.698-0.136,1.459-0.194,2.285
		c-0.058,0.825-0.086,1.665-0.086,2.519c0,1.253,0.079,2.505,0.237,3.758c0.157,1.253,0.458,2.377,0.903,3.373
		c0.444,0.997,1.053,1.8,1.827,2.413c0.774,0.612,1.763,0.918,2.967,0.918c0.888,0,1.741-0.463,2.558-1.388
		c0.817-0.925,1.511-2.341,2.085-4.249c0.573,1.793,1.34,3.068,2.3,3.821c0.96,0.754,1.927,1.131,2.902,1.131
		c0.602,0,1.075-0.107,1.419-0.32c0.344-0.213,0.602-0.449,0.774-0.705c0.2-0.313,0.315-0.668,0.344-1.067
		C107.228,46.861,106.862,46.669,106.561,46.284z"/>
	<path fill="#FFFFFF" d="M113.694,28.628c-1.161,0.912-2.136,2.071-2.924,3.48c-0.789,1.409-1.397,2.975-1.827,4.697
		c-0.43,1.722-0.645,3.38-0.645,4.974c0,1.054,0.093,2.043,0.28,2.967c0.186,0.926,0.473,1.729,0.86,2.413
		c0.387,0.683,0.881,1.223,1.483,1.623c0.602,0.398,1.304,0.597,2.107,0.597c0.458,0,0.953-0.057,1.483-0.17
		c0.53-0.114,1.075-0.37,1.634-0.769c0.559-0.398,1.139-0.982,1.741-1.751c0.602-0.768,1.232-1.807,1.892-3.117
		c0.057,0.854,0.143,1.637,0.258,2.348c0.114,0.711,0.279,1.323,0.494,1.836c0.215,0.512,0.494,0.918,0.838,1.217
		c0.344,0.299,0.802,0.449,1.376,0.449c0.602,0,1.197-0.072,1.784-0.213c0.587-0.144,1.125-0.299,1.612-0.47
		c0.544-0.2,1.089-0.427,1.634-0.684c-0.631-0.739-1.139-1.437-1.526-2.092c-0.387-0.654-0.695-1.287-0.924-1.9
		c-0.23-0.612-0.387-1.21-0.473-1.793c-0.086-0.583-0.129-1.202-0.129-1.857c0-1.11,0.071-2.334,0.215-3.672
		c0.143-1.338,0.215-2.974,0.215-4.911c0-0.512-0.172-0.86-0.516-1.046c-0.344-0.185-0.774-0.277-1.29-0.277
		c-0.316,0-0.652,0.029-1.01,0.085c-0.359,0.057-0.709,0.128-1.053,0.214c-0.115-0.37-0.265-0.762-0.451-1.174
		c-0.187-0.413-0.423-0.797-0.71-1.153c-0.287-0.356-0.638-0.647-1.053-0.875c-0.416-0.228-0.896-0.342-1.44-0.342
		C116.166,27.262,114.855,27.718,113.694,28.628z M118.746,39.965c-0.287,0.954-0.631,1.765-1.032,2.434
		c-0.402,0.669-0.81,1.174-1.225,1.516c-0.416,0.342-0.767,0.512-1.053,0.512c-0.23,0-0.394-0.163-0.494-0.491
		c-0.101-0.327-0.151-0.761-0.151-1.303c0-0.683,0.079-1.501,0.237-2.455c0.157-0.953,0.394-1.906,0.709-2.861
		c0.315-0.954,0.702-1.864,1.161-2.733c0.458-0.868,0.974-1.558,1.548-2.071c0.286,0.826,0.487,1.623,0.602,2.391
		c0.086,0.655,0.129,1.253,0.129,1.793C119.176,37.923,119.032,39.011,118.746,39.965z"/>
	<path fill="#FFFFFF" d="M128.91,33.304c0.157,1.21,0.236,2.356,0.236,3.438c0,1.736-0.108,3.281-0.322,4.633
		c-0.215,1.352-0.323,2.413-0.323,3.181c0,1.68,0.323,2.847,0.967,3.501c0.645,0.655,1.727,0.982,3.246,0.982
		c1.118,0,2.494-0.128,4.128-0.384c-0.344-0.285-0.638-0.676-0.881-1.174c-0.244-0.497-0.437-1.074-0.58-1.729
		c-0.144-0.654-0.244-1.373-0.301-2.156c-0.058-0.783-0.086-1.587-0.086-2.413c0-1.48,0.057-2.96,0.172-4.44
		c0.114-1.48,0.243-2.818,0.387-4.014c0.372-0.256,0.759-0.384,1.161-0.384c1.06,0,1.777,0.335,2.15,1.003
		c0.372,0.669,0.559,1.544,0.559,2.626c0,0.626-0.043,1.302-0.129,2.028c-0.086,0.726-0.179,1.466-0.28,2.22
		c-0.101,0.755-0.193,1.516-0.279,2.285c-0.086,0.769-0.129,1.494-0.129,2.178c0,0.655,0.064,1.281,0.194,1.879
		c0.129,0.598,0.329,1.118,0.602,1.558c0.272,0.441,0.645,0.79,1.118,1.046c0.473,0.256,1.053,0.384,1.741,0.384
		c0.516,0,1.01-0.072,1.483-0.214c0.473-0.143,0.91-0.313,1.311-0.512c0.43-0.228,0.845-0.485,1.247-0.769
		c-0.574-0.427-0.953-1.039-1.139-1.836c-0.187-0.796-0.279-1.708-0.279-2.733c0-0.626,0.036-1.316,0.107-2.071
		c0.071-0.754,0.15-1.537,0.236-2.348c0.086-0.812,0.165-1.623,0.236-2.434c0.071-0.811,0.108-1.601,0.108-2.37
		c0-0.882-0.065-1.708-0.194-2.477c-0.129-0.768-0.365-1.444-0.709-2.028c-0.344-0.583-0.817-1.046-1.419-1.388
		c-0.602-0.341-1.376-0.512-2.322-0.512c-0.631,0-1.426,0.214-2.386,0.641c-0.961,0.427-1.899,1.096-2.816,2.007
		c0.028-0.142,0.043-0.278,0.043-0.406c0-0.128,0-0.249,0-0.363c0-0.768-0.201-1.295-0.602-1.58
		c-0.402-0.284-0.903-0.427-1.505-0.427c-0.574,0-1.182,0.1-1.827,0.299c-0.645,0.2-1.254,0.413-1.827,0.64
		c-0.66,0.285-1.319,0.584-1.978,0.897C128.459,30.849,128.752,32.094,128.91,33.304z"/>
	<path fill="#FFFFFF" d="M155.842,34.371c-0.402,0.128-0.846,0.235-1.333,0.32c0-2.277,0.093-4.384,0.279-6.319
		c0.186-1.935,0.523-3.515,1.01-4.74c0.344,0.427,0.573,0.89,0.688,1.388c0.114,0.498,0.172,0.976,0.172,1.43
		c0,0.228-0.015,0.449-0.043,0.662c-0.029,0.214-0.058,0.392-0.086,0.534c-0.029,0.17-0.058,0.327-0.086,0.469
		c0.802,0,1.519-0.121,2.15-0.363c0.63-0.242,1.168-0.562,1.612-0.961c0.444-0.398,0.781-0.839,1.01-1.324
		c0.229-0.484,0.344-0.982,0.344-1.495c0-0.455-0.101-0.896-0.301-1.323c-0.201-0.427-0.516-0.812-0.946-1.153
		c-0.43-0.341-0.975-0.612-1.634-0.811c-0.66-0.198-1.434-0.299-2.322-0.299c-0.746,0-1.419,0.114-2.021,0.341
		c-0.602,0.228-1.104,0.47-1.505,0.726c-1.262,0.228-2.308,0.662-3.139,1.303c-0.832,0.64-1.247,1.587-1.247,2.839
		c0,0.228,0.021,0.626,0.064,1.195c0.043,0.57,0.093,1.281,0.15,2.135c0.057,0.854,0.129,1.822,0.215,2.903
		c0.086,1.082,0.157,2.235,0.215,3.459c-0.459,0.057-0.932,0.093-1.419,0.107c-0.487,0.014-1.017,0.036-1.591,0.064
		c-0.172,0.341-0.258,0.669-0.258,0.982c0,0.313,0.072,0.605,0.215,0.875c0.144,0.271,0.308,0.506,0.495,0.705
		c0.187,0.199,0.387,0.356,0.602,0.469c0.215,0.114,0.408,0.171,0.581,0.171c0.114-0.028,0.243-0.043,0.387-0.043
		c0.143,0,0.301,0,0.473,0s0.387-0.014,0.645-0.043c0.028,0.74,0.05,1.495,0.064,2.263c0.014,0.769,0.021,1.524,0.021,2.263
		c0,2.62-0.115,5.088-0.344,7.409c-0.23,2.32-0.645,4.191-1.247,5.615c0.659,0.342,1.318,0.655,1.978,0.94
		c0.573,0.228,1.182,0.433,1.827,0.619c0.645,0.185,1.254,0.278,1.827,0.278c0.602,0,1.103-0.143,1.505-0.427
		c0.401-0.285,0.602-0.811,0.602-1.58c0-0.883-0.036-1.972-0.107-3.267c-0.072-1.295-0.158-2.711-0.258-4.249
		c-0.101-1.537-0.201-3.166-0.301-4.889c-0.101-1.722-0.179-3.451-0.236-5.188h1.72c0.831,0,1.404-0.156,1.72-0.47
		c0.315-0.313,0.473-0.684,0.473-1.11c0-0.313-0.064-0.64-0.193-0.982c-0.129-0.341-0.273-0.647-0.43-0.918
		c-0.158-0.27-0.316-0.497-0.473-0.683c-0.158-0.185-0.279-0.277-0.365-0.277C156.63,34.094,156.243,34.243,155.842,34.371z"/>
	<path fill="#FFFFFF" d="M176.941,46.284c-0.301-0.384-0.545-0.897-0.731-1.537c-0.187-0.641-0.322-1.381-0.408-2.22
		c-0.086-0.839-0.129-1.714-0.129-2.626c0-1.11,0.05-2.227,0.15-3.352c0.1-1.124,0.222-2.156,0.365-3.095
		c0.143-0.939,0.301-1.743,0.473-2.413c0.172-0.669,0.344-1.103,0.516-1.302c-0.287-0.398-0.803-0.69-1.548-0.875
		c-0.746-0.185-1.52-0.278-2.322-0.278c-0.746,0-1.397,0.085-1.956,0.256c-0.559,0.171-0.867,0.413-0.924,0.726
		c-0.172,0.854-0.316,1.751-0.43,2.69c-0.115,0.826-0.215,1.751-0.301,2.776c-0.086,1.025-0.129,2.092-0.129,3.203
		c0,0.57,0.014,1.104,0.043,1.601c0.028,0.499,0.071,0.976,0.129,1.431c-0.631,1.168-1.233,1.751-1.806,1.751
		c-0.516,0-0.946-0.448-1.29-1.345c-0.344-0.897-0.516-2.17-0.516-3.822c0-1.024,0.079-2.184,0.236-3.48
		c0.157-1.295,0.423-2.711,0.795-4.248c-0.602-0.113-1.154-0.192-1.655-0.235c-0.502-0.043-0.953-0.064-1.354-0.064
		c-0.832,0-1.498,0.079-1.999,0.235c-0.502,0.156-0.881,0.335-1.139,0.534c-0.316,0.228-0.516,0.47-0.602,0.726
		c-0.058,0.285-0.122,0.691-0.193,1.217c-0.072,0.527-0.144,1.139-0.215,1.836c-0.072,0.698-0.136,1.459-0.193,2.285
		c-0.058,0.825-0.086,1.665-0.086,2.519c0,1.253,0.079,2.505,0.236,3.758c0.157,1.253,0.458,2.377,0.903,3.373
		c0.444,0.997,1.053,1.8,1.827,2.413c0.774,0.612,1.763,0.918,2.967,0.918c0.888,0,1.741-0.463,2.558-1.388
		c0.817-0.925,1.512-2.341,2.085-4.249c0.573,1.793,1.34,3.068,2.3,3.821c0.96,0.754,1.927,1.131,2.902,1.131
		c0.602,0,1.075-0.107,1.419-0.32c0.344-0.213,0.602-0.449,0.774-0.705c0.2-0.313,0.315-0.668,0.344-1.067
		C177.608,46.861,177.242,46.669,176.941,46.284z"/>
	<path fill="#FFFFFF" d="M188.245,26.494c-0.215,0.085-0.452,0.157-0.709,0.214c0.114-1.082,0.207-1.993,0.279-2.733
		c0.071-0.74,0.108-1.252,0.108-1.537c0-2.761-1.247-4.142-3.741-4.142c-1.004,0-2.165,0.213-3.483,0.641
		c0.516,0.655,0.874,1.687,1.075,3.096c0.2,1.409,0.301,3.053,0.301,4.932v0.555c-0.66,0.057-1.362,0.1-2.107,0.128
		c-0.746,0.028-1.576,0.071-2.494,0.127c-0.172,0.342-0.258,0.67-0.258,0.983c0,0.314,0.072,0.605,0.215,0.875
		c0.144,0.271,0.308,0.505,0.494,0.705c0.187,0.199,0.387,0.356,0.602,0.47c0.215,0.114,0.408,0.171,0.58,0.171
		c0.2,0,0.458-0.014,0.774-0.043c0.258-0.028,0.559-0.043,0.903-0.043s0.745-0.014,1.204-0.043
		c-0.086,1.537-0.187,3.103-0.301,4.697c-0.115,1.595-0.23,3.139-0.344,4.633c-0.115,1.495-0.215,2.904-0.301,4.228
		s-0.129,2.469-0.129,3.437c0,0.768,0.2,1.295,0.602,1.58c0.401,0.284,0.903,0.426,1.505,0.426c0.573,0,1.182-0.093,1.827-0.277
		c0.645-0.186,1.254-0.392,1.827-0.619c0.659-0.285,1.318-0.597,1.978-0.94c-0.602-1.423-1.018-3.13-1.247-5.123
		c-0.23-1.992-0.344-4.056-0.344-6.192c0-1.025,0.014-2.042,0.043-3.053c0.028-1.01,0.071-2,0.129-2.968h1.849
		c1.003,0,1.691-0.113,2.064-0.341c0.372-0.228,0.559-0.513,0.559-0.854c0-0.341-0.129-0.697-0.387-1.067
		c-0.258-0.37-0.552-0.718-0.881-1.046c-0.33-0.327-0.645-0.598-0.946-0.811c-0.301-0.213-0.494-0.32-0.58-0.32
		C188.681,26.323,188.46,26.408,188.245,26.494z"/>
	<path fill="#FFFFFF" d="M191.888,19.363c0.143,1.566,0.215,3.302,0.215,5.209c0,1.339-0.022,2.719-0.064,4.142
		c-0.043,1.424-0.101,2.854-0.172,4.291c-0.072,1.438-0.129,2.847-0.172,4.227c-0.043,1.381-0.064,2.683-0.064,3.907
		c0,1.878,0.05,3.402,0.15,4.569c0.1,1.167,0.358,2.078,0.774,2.732c0.415,0.655,1.039,1.095,1.87,1.324
		c0.831,0.228,1.978,0.342,3.44,0.342c0.458,0,0.881-0.008,1.268-0.021c0.387-0.015,0.738-0.036,1.053-0.064
		c0.344-0.028,0.659-0.071,0.946-0.128c-0.402-0.314-0.753-0.762-1.053-1.345c-0.301-0.583-0.566-1.26-0.795-2.028
		c0.43,0.427,0.996,0.783,1.698,1.067c0.702,0.285,1.583,0.427,2.644,0.427c1.032,0,1.935-0.241,2.709-0.725
		c0.774-0.484,1.404-1.124,1.892-1.921c0.487-0.797,0.852-1.715,1.096-2.754c0.243-1.039,0.366-2.114,0.366-3.224
		c0-1.309-0.158-2.604-0.473-3.885c-0.316-1.281-0.767-2.433-1.354-3.459c-0.588-1.024-1.311-1.857-2.171-2.498
		c-0.86-0.641-1.849-0.961-2.967-0.961c-0.66,0-1.369,0.135-2.128,0.406c-0.76,0.271-1.555,0.691-2.386,1.26
		c0.028-1.423,0.079-2.825,0.15-4.206c0.071-1.381,0.136-2.697,0.193-3.95c0.057-1.252,0.107-2.419,0.15-3.501
		c0.043-1.082,0.064-2.035,0.064-2.861c0-0.769-0.201-1.295-0.602-1.58c-0.402-0.285-0.903-0.427-1.505-0.427
		c-0.574,0-1.182,0.1-1.827,0.299c-0.645,0.199-1.254,0.413-1.827,0.641c-0.66,0.285-1.319,0.584-1.978,0.896
		C191.458,16.531,191.744,17.798,191.888,19.363z M202.507,34.307c0.544,0.911,0.817,1.964,0.817,3.16
		c0,0.683-0.093,1.381-0.279,2.092c-0.187,0.712-0.473,1.366-0.86,1.964c-0.387,0.598-0.867,1.125-1.44,1.58
		c-0.574,0.456-1.247,0.769-2.021,0.94c-0.23-1.367-0.38-2.854-0.451-4.462c-0.072-1.608-0.107-3.295-0.107-5.06v-1.067
		c0.688-0.342,1.333-0.512,1.935-0.512C201.16,32.941,201.963,33.397,202.507,34.307z"/>
	<path fill="#FFFFFF" d="M228.787,34.884c-0.273,0.128-0.552,0.235-0.838,0.32c-0.086-0.967-0.287-1.885-0.602-2.754
		c-0.316-0.868-0.738-1.623-1.268-2.263c-0.531-0.64-1.176-1.146-1.935-1.516c-0.76-0.369-1.641-0.555-2.644-0.555
		c-0.402,0-0.795,0.164-1.182,0.491c-0.387,0.328-0.752,0.747-1.096,1.26c-0.201-0.199-0.43-0.391-0.688-0.577
		c-0.258-0.185-0.516-0.342-0.774-0.47c-0.258-0.128-0.488-0.235-0.688-0.32c-0.201-0.086-0.344-0.128-0.43-0.128
		c-0.832,0-1.598,0.328-2.3,0.982c-0.703,0.655-1.326,1.502-1.87,2.541c-0.545,1.039-0.967,2.22-1.268,3.544
		c-0.301,1.324-0.452,2.668-0.452,4.035c0,1.253,0.15,2.463,0.452,3.629c0.301,1.168,0.781,2.207,1.44,3.117
		c0.659,0.912,1.512,1.644,2.558,2.199c1.046,0.555,2.329,0.833,3.848,0.833c1.318,0,2.508-0.342,3.569-1.025
		c1.06-0.683,1.978-1.58,2.752-2.69c0.774-1.111,1.383-2.355,1.827-3.736c0.444-1.381,0.71-2.768,0.796-4.163
		c0.573-0.455,1.017-0.924,1.333-1.409c0.315-0.484,0.473-0.911,0.473-1.281c0-0.171-0.043-0.327-0.129-0.47
		C229.353,34.621,229.059,34.756,228.787,34.884z M217.522,44.213c-0.33-0.74-0.495-1.708-0.495-2.903
		c0-0.882,0.079-1.836,0.236-2.86c0.157-1.025,0.394-2.05,0.71-3.075c0.172,0.883,0.594,1.659,1.268,2.328
		c0.673,0.669,1.698,1.088,3.074,1.259c-0.058,0.826-0.165,1.616-0.322,2.37c-0.158,0.755-0.359,1.43-0.602,2.028
		c-0.244,0.597-0.545,1.075-0.903,1.43c-0.359,0.357-0.781,0.534-1.268,0.534C218.418,45.323,217.851,44.954,217.522,44.213z
		 M220.876,32.194c0.1-0.214,0.222-0.321,0.365-0.321c0.315,0,0.566,0.356,0.753,1.068c0.186,0.712,0.308,1.594,0.365,2.647
		c-0.631-0.313-1.061-0.718-1.29-1.217c-0.23-0.497-0.344-0.961-0.344-1.387C220.725,32.671,220.775,32.407,220.876,32.194z"/>
	<path fill="#FFFFFF" d="M231.147,19.363c0.157,1.566,0.236,3.288,0.236,5.166c0,1.339-0.029,2.726-0.086,4.163
		c-0.058,1.438-0.115,2.875-0.172,4.313c-0.058,1.438-0.115,2.854-0.172,4.248c-0.058,1.395-0.086,2.705-0.086,3.928
		c0,1.623,0.079,2.975,0.236,4.056c0.157,1.082,0.409,1.936,0.752,2.562c0.344,0.626,0.802,1.067,1.376,1.324
		c0.573,0.256,1.275,0.384,2.107,0.384c0.516,0,1.081-0.036,1.698-0.107c0.616-0.071,1.297-0.178,2.042-0.32
		c-0.344-0.399-0.638-0.982-0.881-1.751c-0.244-0.768-0.43-1.679-0.559-2.733c-0.129-1.053-0.222-2.22-0.279-3.501
		c-0.058-1.281-0.086-2.619-0.086-4.014c0-1.879,0.035-3.828,0.107-5.849c0.071-2.021,0.157-3.986,0.258-5.892
		c0.1-1.907,0.186-3.694,0.258-5.359c0.071-1.665,0.107-3.096,0.107-4.291c0-0.769-0.201-1.295-0.602-1.58
		c-0.402-0.285-0.903-0.427-1.505-0.427c-0.574,0-1.182,0.1-1.827,0.299c-0.645,0.199-1.254,0.413-1.827,0.641
		c-0.66,0.285-1.319,0.584-1.978,0.897C230.696,16.517,230.989,17.798,231.147,19.363z"/>
	<path fill="#FFFFFF" d="M50.793,8.707c0,0-1.771,1.113-2.944,3.903c-0.471,0.253-0.914,0.582-1.307,0.933
		c0.425-2.348-0.108-3.534-0.589-4.095c0.078-0.198,0.16-0.384,0.251-0.554c-0.182,0.09-0.349,0.192-0.513,0.292
		c-0.183-0.149-0.315-0.204-0.315-0.204c0.041,0.116,0.073,0.229,0.105,0.342c-0.608,0.405-1.095,0.87-1.489,1.366
		c0.667-3.486,2.835-5.238,2.835-5.238c-2.389,1.148-3.51,3.427-4.041,5.451c-0.477-0.606-1.059-1.189-1.785-1.723
		c0,0,0.288,0.618,0.559,1.583c-0.28-0.171-0.559-0.274-0.831-0.269c0.149,0.177,0.302,0.396,0.451,0.641
		c-0.272,0.147-0.591,0.352-0.914,0.634c-0.171-0.067-0.345-0.131-0.534-0.183c0.231-0.43,0.476-0.808,0.71-1.082
		c-0.192-0.003-0.387,0.046-0.584,0.134c0.594-1.987,1.54-4.223,3.038-6.02c0,0-3.647,2.274-5.047,8.249
		c-0.109,0.204-0.21,0.411-0.299,0.621c-0.026-0.33-0.069-0.673-0.132-1.021c0.094-0.054,0.188-0.102,0.275-0.143
		c-0.099-0.047-0.209-0.074-0.324-0.094c-0.376-1.814-1.326-3.793-3.463-5.352c0,0,0.98,2.042,0.98,4.57
		c-0.246,0.128-0.495,0.277-0.74,0.451c-0.056,0-0.105,0.009-0.158,0.012c-0.119-0.118-0.242-0.237-0.37-0.353
		c0.267-0.533,0.56-1.005,0.837-1.335c-0.49-0.009-1.013,0.314-1.496,0.815c-0.155-0.109-0.307-0.218-0.475-0.316
		c0.68-1.56,1.456-2.593,1.456-2.593c-0.221,0.116-0.432,0.249-0.636,0.386c0.027-0.035,0.053-0.077,0.08-0.107
		c-0.816,0.512-1.469,1.15-1.997,1.843c-0.105-0.035-0.206-0.072-0.319-0.099c0,0,0.098,0.085,0.235,0.205
		c-0.195,0.265-0.365,0.541-0.523,0.819c-0.292,0.469-0.532,0.945-0.741,1.413c-0.053-0.142-0.111-0.285-0.17-0.425
		c0.089-0.603,0.142-1.184,0.155-1.741c0.053-0.071,0.107-0.141,0.157-0.202c-0.049,0-0.101,0.013-0.154,0.017
		c0.047-3.604-1.296-6.157-1.296-6.157c0.425,2.153,0.288,4.213-0.079,6.008c-0.507-0.632-1.12-1.21-1.872-1.682
		c0.543,0.643,1.114,1.804,1.433,3.122c-0.315-0.335-0.638-0.626-0.957-0.872c0.11-0.151,0.223-0.305,0.354-0.448
		c-0.233,0.061-0.45,0.14-0.653,0.227c-1.128-0.795-2.095-1.063-2.095-1.063c0.504,0.498,0.933,1.005,1.302,1.501
		c-1.057,0.744-1.603,1.857-1.788,2.956c-0.211,0.19-0.406,0.387-0.583,0.584c0.093-0.425,0.161-0.824,0.208-1.196
		c0.349-1.144,0.967-2.375,1.522-3.03c-0.49-0.01-1.01,0.313-1.493,0.812c-0.293-2.239-1.592-2.744-1.592-2.744
		c0.266,0.722,0.37,1.433,0.367,2.103c-0.741,0.347-1.303,0.905-1.717,1.542c-0.67-3.576,2.133-5.934,2.133-5.934
		c-1.845,1.003-2.85,2.267-3.359,3.534c-0.208-0.209-0.446-0.404-0.724-0.576c0.316,0.34,0.456,0.809,0.471,1.338
		c-0.126,0.491-0.186,0.976-0.203,1.44c-0.163,0.575-0.409,1.158-0.698,1.692c-0.041-0.129-0.08-0.263-0.116-0.399
		c-0.038-0.22-0.085-0.446-0.145-0.672c-0.021-0.115-0.048-0.221-0.065-0.34c0.269-0.396,0.579-0.796,0.981-1.192
		c0,0.007-0.464,0.136-1.051,0.5c-0.048-0.774,0-1.619,0.196-2.534c0,0-0.532,0.505-1.03,1.374
		c-0.195-0.291-0.425-0.574-0.684-0.848c0.592-1.608,1.421-3.271,2.587-4.668c0.004,0.003-1.827,1.156-3.394,3.954
		c-0.308-0.233-0.649-0.448-1.03-0.644c0.231,0.436,0.42,0.968,0.568,1.538c-0.222,0.468-0.435,0.974-0.629,1.52
		c-0.046-0.093-0.102-0.185-0.152-0.279c0.078-0.071,0.159-0.133,0.249-0.178c-0.123-0.022-0.243-0.028-0.362-0.028
		c-0.15-0.26-0.315-0.52-0.497-0.779c0.544-0.556,0.931-0.867,0.931-0.867c-0.443,0.106-0.85,0.258-1.245,0.432
		c-0.463-0.567-1.021-1.111-1.704-1.612c0,0,0.406,0.854,0.698,2.127c-0.448,0.278-0.861,0.589-1.244,0.92
		c-0.283,0.17-0.555,0.438-0.805,0.771c-0.016,0.019-0.035,0.034-0.05,0.052c-0.297-0.267-0.633-0.509-0.993-0.728
		c0.105-0.432,0.283-0.787,0.561-1c-0.117,0-0.227,0.018-0.336,0.038c0.24-0.401,0.505-0.788,0.806-1.144
		c0,0-0.661,0.418-1.44,1.369c-0.155,0.086-0.302,0.189-0.441,0.31c-0.229-0.093-0.463-0.178-0.712-0.236c0,0,0.2,0.165,0.489,0.445
		c-0.318,0.332-0.585,0.742-0.809,1.183C5.704,3.996,0.92,0.999,0.92,0.999c2.032,2.437,3.344,5.44,4.191,8.16
		c-0.15-0.09-0.304-0.18-0.468-0.265c0.442,0.831,0.733,2.01,0.877,3.139c-1.435-1.759-3.279-2.268-3.279-2.268
		c1.613,1.599,2.395,3.25,2.782,4.493c-0.801-0.891-1.968-1.853-3.219-2.088c0.641,0.467,1.536,1.551,2.178,2.676H2.044v45.995
		h0.122v0.159h46.47V15.008h-0.12v-0.162h-1.651c0.148-0.259,0.308-0.516,0.479-0.765c-0.069,0.246-0.131,0.498-0.188,0.763h1.03
		c0.135-0.711,0.35-1.596,0.668-2.522c0.066-0.054,0.129-0.109,0.187-0.152c-0.047,0.009-0.095,0.021-0.145,0.033
		C49.32,11.009,49.92,9.752,50.793,8.707 M5.524,14.847H5.509c0-0.002,0-0.002,0-0.002h0.015
		C5.524,14.844,5.524,14.844,5.524,14.847 M39.461,12.129c0.004-0.009,0.007-0.02,0.011-0.026c0.067,0.091,0.127,0.192,0.188,0.29
		c-0.017,0.022-0.036,0.04-0.053,0.064c-0.082,0.034-0.162,0.072-0.245,0.11C39.393,12.423,39.427,12.28,39.461,12.129
		 M34.747,12.787c0.012,0.014,0.026,0.03,0.036,0.043c0,0.004-0.001,0.009-0.001,0.014c-0.012-0.018-0.026-0.032-0.04-0.051
		C34.744,12.791,34.746,12.788,34.747,12.787 M33.154,12.61c0.015,0.025,0.031,0.052,0.044,0.076
		c-0.037,0.038-0.078,0.07-0.114,0.108C33.106,12.731,33.129,12.671,33.154,12.61 M32.24,11.323c0.077,0.09,0.155,0.189,0.233,0.287
		c-0.239,0.322-0.459,0.682-0.652,1.054C31.938,12.197,32.08,11.745,32.24,11.323 M26.699,11.659
		c0.131,0.21,0.255,0.417,0.366,0.621c-0.205,0.049-0.416,0.115-0.633,0.207C26.49,12.21,26.587,11.934,26.699,11.659
		 M27.361,12.852c0.017,0.032,0.032,0.063,0.048,0.095c-0.309,0.652-0.522,1.319-0.592,1.899h-0.181
		c-0.159-0.359-0.26-0.753-0.292-1.17C26.68,13.367,27.027,13.092,27.361,12.852 M22.683,11.561c-0.055,0.185-0.1,0.381-0.134,0.581
		C22.583,11.942,22.628,11.746,22.683,11.561 M15.925,12.206c0.028,0.675-0.003,1.272-0.094,1.684
		c-0.043-0.057-0.095-0.121-0.144-0.182c-0.01-0.073-0.014-0.143-0.027-0.219C15.731,13.1,15.819,12.665,15.925,12.206
		 M13.02,10.982c0.006,0.058,0.012,0.119,0.017,0.178c-0.087,0.075-0.173,0.151-0.257,0.234c-0.019-0.007-0.038-0.013-0.057-0.019
		C12.822,11.241,12.921,11.109,13.02,10.982 M12.569,11.59c0.005,0.005,0.008,0.009,0.011,0.013
		c-0.04,0.042-0.076,0.091-0.113,0.136C12.501,11.689,12.536,11.64,12.569,11.59 M13.583,26.562
		c1.603-0.001,2.902,1.281,2.905,2.866c0.004,1.585-1.293,2.872-2.896,2.873c-1.6,0.003-2.902-1.279-2.904-2.864
		C10.686,27.851,11.983,26.565,13.583,26.562 M9.669,12.857c-0.048-0.4-0.067-0.795-0.054-1.174c0.152,0.196,0.305,0.405,0.453,0.63
		C9.926,12.496,9.797,12.676,9.669,12.857 M10.193,40.517l29.546-0.045C39.766,56.581,10.22,56.487,10.193,40.517 M36.924,32.253
		c-1.602,0.003-2.902-1.28-2.905-2.862c-0.001-1.586,1.294-2.875,2.895-2.876c1.602-0.003,2.901,1.28,2.905,2.866
		C39.82,30.964,38.525,32.253,36.924,32.253 M39.91,14.348c0.064-0.256,0.157-0.55,0.286-0.87c0.173,0.451,0.281,0.871,0.286,1.165
		C40.317,14.548,40.123,14.448,39.91,14.348 M41.278,12.351c0.041-0.022,0.083-0.047,0.125-0.065
		c-0.104-0.048-0.215-0.08-0.334-0.098c-0.046-0.034-0.095-0.061-0.146-0.091c0.136-0.205,0.291-0.412,0.46-0.619
		c0.194,0.351,0.378,0.735,0.543,1.137c0.015,0.144,0.028,0.292,0.037,0.441C41.775,12.811,41.552,12.57,41.278,12.351
		 M45.339,14.847h-0.015c-0.001-0.006-0.001-0.012-0.004-0.015l0.025,0.006C45.342,14.841,45.34,14.844,45.339,14.847 M45.253,12.78
		c0.057-0.795,0.193-1.662,0.407-2.451C45.72,11.249,45.518,12.095,45.253,12.78"/>
</g>
</svg>
