<?xml version="1.0" encoding="utf-8"?>
<!-- Generator: Adobe Illustrator 17.0.0, SVG Export Plug-In . SVG Version: 6.00 Build 0)  -->
<!DOCTYPE svg PUBLIC "-//W3C//DTD SVG 1.1//EN" "http://www.w3.org/Graphics/SVG/1.1/DTD/svg11.dtd">
<svg version="1.1" id="Layer_1" xmlns="http://www.w3.org/2000/svg" xmlns:xlink="http://www.w3.org/1999/xlink" x="0px" y="0px"
	 width="18px" height="18px" viewBox="0 0 18 18" enable-background="new 0 0 18 18" xml:space="preserve">
<path fill-rule="evenodd" clip-rule="evenodd" fill="#FFFFFF" d="M12.866,15.991v-4.866c0-1.191-0.358-1.963-1.435-1.963
	c-0.822,0-1.383,0.548-1.599,1.078c-0.079,0.189-0.156,0.403-0.156,0.668v5.084h-3.11c0,0,0.044-9.383,0-9.428h3.11v1.738
	C9.669,8.311,9.721,8.32,9.715,8.33l0.11-0.028l0,0c0.395-0.604,1.326-1.684,2.905-1.684c1.957,0,3.267,1.485,3.267,4.208v5.172
	L12.866,15.991z M2.003,6.564h3.145l0,9.434h-3.12L2.003,6.564z M3.57,5.092c-0.852,0-1.542-0.692-1.542-1.545
	c0-0.853,0.691-1.545,1.542-1.545s1.542,0.691,1.542,1.545C5.112,4.4,4.421,5.092,3.57,5.092z"/>
</svg>
