<?xml version="1.0" encoding="utf-8"?>
<!-- Generator: Adobe Illustrator 17.0.0, SVG Export Plug-In . SVG Version: 6.00 Build 0)  -->
<!DOCTYPE svg PUBLIC "-//W3C//DTD SVG 1.1//EN" "http://www.w3.org/Graphics/SVG/1.1/DTD/svg11.dtd">
<svg version="1.1" id="Layer_1" xmlns="http://www.w3.org/2000/svg" xmlns:xlink="http://www.w3.org/1999/xlink" x="0px" y="0px"
	 width="119px" height="138px" viewBox="0 0 119 138" enable-background="new 0 0 119 138" xml:space="preserve">
<path fill="#D2D3D3" d="M113.69,133.705l-29.053,3.339c0,0-3.005-10.018-5.844-11.521s-6.345-5.176-6.345-5.176
	s-1.002,1.837-3.506,0c0,0,1.336-5.009-4.007-3.339c0,0-4.174,0-6.178-3.339c-2.004-3.339-4.341-2.171-4.341-2.171
	s-6.345-1.398-8.683-0.198s-3.005-8.317-2.338-9.987c0,0-3.673,0-3.005-3.005c0.668-3.006-11.187-13.358-11.187-13.358
	s-1.67-4.675,0-4.174c1.67,0.501,2.022-6.178-0.742-4.508c-2.764,1.67-7.273-7.347-6.271-12.523c0,0-2.338-3.673-6.011-3.172
	c0,0,3.339-2.839-2.004-7.347s-6.011-6.345-6.011-6.345s2.004-0.167,0-5.176s3.339-3.172-6.846-14.86c0,0-1.503-2.505,0-5.176
	s6.178-9.183,1.67-17.031L2.654,0.962h42.578l0.501,4.341l1.169-1.169c0,0,0-3.339,0.835-3.172c0.835,0.167,3.506,0.668,3.506,0.668
	l-0.167,40.574c0,0-1.503,0.675-1.837,1.924c-0.334,1.249,0,4.588,2.505,2.584l60.444,56.437c0,0,0.668,2.839,1.503,2.839
	c0.835,0,0.167,3.506,1.336,4.842c1.169,1.336,4.007,1.002,3.172,2.338s-5.02,2.339-4.675,6.178c0.107,1.19,0.334,2.505-0.334,3.84
	c-0.668,1.336-2.672,3.673-0.167,6.846S113.69,133.705,113.69,133.705z"/>
<path fill-rule="evenodd" clip-rule="evenodd" fill="#181C23" d="M86.366,126.889c2.209,0,4,1.793,4,4.006s-1.791,4.006-4,4.006
	c-2.209,0-4-1.794-4-4.006S84.156,126.889,86.366,126.889z"/>
</svg>
