<?xml version="1.0" encoding="utf-8"?>
<!-- Generator: Adobe Illustrator 17.0.0, SVG Export Plug-In . SVG Version: 6.00 Build 0)  -->
<!DOCTYPE svg PUBLIC "-//W3C//DTD SVG 1.1//EN" "http://www.w3.org/Graphics/SVG/1.1/DTD/svg11.dtd">
<svg version="1.1" id="Layer_1" xmlns="http://www.w3.org/2000/svg" xmlns:xlink="http://www.w3.org/1999/xlink" x="0px" y="0px"
	 width="218px" height="62px" viewBox="0 0 218 62" enable-background="new 0 0 218 62" xml:space="preserve">
<g>
	<path fill="#FFFFFF" d="M94.533,31.093c0,0-3.372-1.28-5.336-1.28c-1.408,0-1.964,0.377-1.964,1.13
		c0,0.716,0.853,0.979,1.927,1.432l1.26,0.528c1.89,0.791,4.113,1.808,4.113,5.237c0,5.99-3.631,7.12-9.079,7.12
		c-3.557,0-7.189-1.545-7.189-1.545l0.889-5.312c0,0,4.04,1.469,5.856,1.469c1.445,0,2.075-0.339,2.075-1.243
		c0-0.942-0.926-1.093-1.853-1.469l-0.926-0.377c-1.816-0.753-4.447-2.035-4.447-5.726c0-5.161,4.373-6.518,8.857-6.518
		c4.076,0,6.707,1.431,6.707,1.431L94.533,31.093z"/>
	<path fill="#FFFFFF" d="M113.237,42.358c-1.927,2.035-4.632,2.901-8.413,2.901c-4.41,0-8.931-1.846-8.931-8.213
		c0-3.353,0.964-6.706,2.816-8.891c2.038-2.411,4.818-3.616,8.968-3.616c4.299,0,8.931,1.846,8.931,8.213
		C116.609,36.632,115.46,40.022,113.237,42.358z M107.233,29.323c-2.928,0-3.928,5.274-3.928,7.912c0,2.26,0.557,3.203,2.002,3.203
		c3.076,0,3.965-5.652,3.965-8.326C109.272,30.152,108.716,29.323,107.233,29.323z"/>
	<path fill="#FFFFFF" d="M133.72,31.32c0,0-2.446-1.431-4.113-1.431c-1.224,0-2.149,0.377-2.854,1.318
		c-1,1.318-1.668,4.182-1.668,5.915c0,2.034,0.63,2.675,2.112,2.675c1.964,0,5.262-1.055,5.262-1.055l-0.964,5.538
		c0,0-2.631,0.979-6.189,0.979c-3.298,0-7.708-1.167-7.708-7.572c0-5.651,1.853-8.967,4.15-11.001
		c1.89-1.695,4.299-2.147,6.745-2.147c3.632,0,6.078,1.808,6.078,1.808L133.72,31.32z"/>
	<path fill="#FFFFFF" d="M150.226,31.32c0,0-2.446-1.431-4.114-1.431c-1.223,0-2.149,0.377-2.854,1.318
		c-1.001,1.318-1.667,4.182-1.667,5.915c0,2.034,0.63,2.675,2.112,2.675c1.964,0,5.262-1.055,5.262-1.055l-0.964,5.538
		c0,0-2.631,0.979-6.188,0.979c-3.299,0-7.708-1.167-7.708-7.572c0-5.651,1.852-8.967,4.15-11.001
		c1.89-1.695,4.299-2.147,6.745-2.147c3.631,0,6.077,1.808,6.077,1.808L150.226,31.32z"/>
	<path fill="#FFFFFF" d="M157.935,37.875c0.148,1.846,1.297,1.997,2.52,1.997c2.928,0,7.227-1.432,7.227-1.432l-0.556,5.501
		c0,0-3.669,1.318-7.819,1.318c-4.373,0-8.672-1.695-8.672-8.288c0-7.309,3.817-12.433,10.858-12.433
		c4.336,0,8.153,1.808,8.153,6.216C169.646,36.933,164.494,37.762,157.935,37.875z M161.085,28.909
		c-1.816,0-2.705,1.921-3.076,4.898c2.854-0.075,4.595-0.716,4.595-2.901C162.604,29.511,162.085,28.909,161.085,28.909z"/>
	<path fill="#FFFFFF" d="M185.203,31.131c0,0-1.26-0.527-2.668-0.527c-2.557,0-3.557,3.805-3.557,3.805l-1.816,10.474h-7.411
		l3.446-19.968h5.003l0.853,3.278c0,0,0.89-3.654,4.484-3.654c1.408,0,2.631,0.603,2.631,0.603L185.203,31.131z"/>
	<path fill="#FFFFFF" d="M191.751,44.883h-7.411l4.706-27.126h7.412L191.751,44.883z"/>
	<path fill="#FFFFFF" d="M208.924,42.622c-3.372,7.271-5.892,9.419-16.121,9.419l0.889-4.973c2.928-0.188,5.151-0.679,7.004-2.336
		l-4.521-19.817h8.116l0.593,13.826l4.299-13.826h7.931L208.924,42.622z"/>
	<path fill="#FFFFFF" d="M58.14,27.464l0.022-0.011l4.057-3.035l-5.203-0.206h-0.011l-1.43-4.091
		c-0.177-0.541-0.79-0.706-1.357-0.706h-8.891c-0.567,0-1.307-0.01-1.641,0.453l-4.387,5.888c-0.331,0.462-0.463,1.188-0.286,1.735
		l2.664,8.221c0.177,0.545,0.762,1.112,1.305,1.287l7.338,2.381c0.542,0.177,1.361,0.04,1.821-0.296l7.071-5.17
		c0.459-0.336,0.692-1.057,0.513-1.603L58.14,27.464z"/>
	<path fill="#FFFFFF" d="M25.487,23.714c0.341,0.459,1.084,0.499,1.652,0.499h8.762c0.567,0,1.313-0.039,1.654-0.499l4.458-5.846
		c0.338-0.46,0.472-1.198,0.294-1.74l-2.638-8.642c-0.179-0.544-0.792-1.592-1.359-1.592h-5.082l-1.723-4.852l-1.997,4.852H24.84
		c-0.569,0-1.182,1.09-1.359,1.634l-2.668,8.454c-0.18,0.544-0.048,1.361,0.293,1.819L25.487,23.714z"/>
	<path fill="#FFFFFF" d="M0.886,24.404l3.967,3.428l-1.435,4.449c-0.178,0.544,0.052,1.29,0.513,1.626l7.07,5.181
		c0.462,0.336,1.281,0.481,1.82,0.304l7.329-2.417c0.539-0.178,1.125-0.771,1.301-1.316l2.636-8.182
		c0.176-0.546,0.047-1.37-0.288-1.834l-4.439-5.776c-0.335-0.463-1.072-0.453-1.641-0.453H8.928c-0.567,0-1.179-0.034-1.357,0.509
		l-1.559,4.288H6.003L0.886,24.404"/>
	<path fill="#FFFFFF" d="M30.04,44.467l-7.151-5.081c-0.462-0.337-1.362-0.467-1.903-0.291l-7.426,2.411
		c-0.542,0.175-1.149,0.766-1.324,1.31l-2.709,8.326c-0.177,0.547,0.049,1.266,0.511,1.601l4.099,2.993l-0.007,0.01l-1.45,4.944
		l4.452-2.745l0.013-0.013l3.803,2.773c0.459,0.337,1.214,0.337,1.676,0.002l7.415-5.162c0.46-0.334,1.156-1.078,1.156-1.651v-7.775
		C31.196,45.546,30.5,44.804,30.04,44.467z"/>
	<path fill="#FFFFFF" d="M50.962,42.797c-0.175-0.545-0.761-1.134-1.303-1.31l-7.383-2.402c-0.543-0.177-1.363-0.046-1.822,0.289
		l-6.837,5.093c-0.46,0.337-0.686,1.081-0.686,1.654v7.753c0,0.573,0.227,1.315,0.686,1.652l7.013,5.166
		c0.461,0.337,1.178,0.171,1.639-0.165l4.118-3.167H46.37l3.808,3.079l-1.639-4.94v-0.007l4.191-2.753
		c0.459-0.339,0.9-1.057,0.724-1.602L50.962,42.797z"/>
</g>
</svg>
