<?xml version="1.0" encoding="utf-8"?>
<!-- Generator: Adobe Illustrator 17.0.0, SVG Export Plug-In . SVG Version: 6.00 Build 0)  -->
<!DOCTYPE svg PUBLIC "-//W3C//DTD SVG 1.1//EN" "http://www.w3.org/Graphics/SVG/1.1/DTD/svg11.dtd">
<svg version="1.1" id="Layer_1" xmlns="http://www.w3.org/2000/svg" xmlns:xlink="http://www.w3.org/1999/xlink" x="0px" y="0px"
	 width="18px" height="18px" viewBox="0 0 18 18" enable-background="new 0 0 18 18" xml:space="preserve">
<path fill-rule="evenodd" clip-rule="evenodd" fill="#73B643" d="M11.559,2.242c1.519-0.045,2.073,0.673,2.879,1.301
	c0.693-0.243,1.386-0.486,2.079-0.729c-0.324,0.816-0.776,1.188-1.279,1.78c0.586-0.162,1.173-0.324,1.759-0.485
	c-0.447,0.641-1.023,1.27-1.679,1.699c0.095,5.106-2.75,8.295-6.477,9.549c-2.481,0.835-6.392,0.333-7.836-1.133
	c2.002,0.065,3.834-0.302,4.718-1.376c-1.489-0.063-2.703-1.044-2.959-2.346c0.027,0,0.053,0,0.08,0
	c0.355,0.118,0.947,0.128,1.199-0.081c-1.486-0.287-2.207-1.302-2.399-2.914c0.027-0.027-0.027-0.297,0-0.323
	C2.07,7.319,2.497,7.454,2.923,7.589c0-0.027,0-0.054,0-0.081C2.518,7.054,2.06,6.66,1.804,6.051c-0.4-0.95-0.168-2.606,0.32-2.913
	c1.108,1.737,4.128,3.25,6.637,3.48c0.027-0.054,0.053-0.108,0.08-0.162C8.396,4.078,10.176,2.409,11.559,2.242z"/>
</svg>
