<?xml version="1.0" encoding="utf-8"?>
<!-- Generator: Adobe Illustrator 17.0.0, SVG Export Plug-In . SVG Version: 6.00 Build 0)  -->
<!DOCTYPE svg PUBLIC "-//W3C//DTD SVG 1.1//EN" "http://www.w3.org/Graphics/SVG/1.1/DTD/svg11.dtd">
<svg version="1.1" id="Layer_1" xmlns="http://www.w3.org/2000/svg" xmlns:xlink="http://www.w3.org/1999/xlink" x="0px" y="0px"
	 width="162.859px" height="40px" viewBox="0 0 162.859 40" enable-background="new 0 0 162.859 40" xml:space="preserve">
<g>
	<path fill="#FFFFFF" d="M5.178,7.834v11.772c0,1.11,0.13,1.947,0.389,2.508c0.458,0.992,1.358,1.488,2.699,1.488
		c1.717,0,2.894-0.705,3.529-2.115c0.33-0.764,0.494-1.774,0.494-3.028V7.834h5.125v19.53h-4.912v-2.759
		c-0.047,0.06-0.165,0.239-0.354,0.538c-0.189,0.298-0.412,0.561-0.672,0.788c-0.79,0.717-1.553,1.207-2.29,1.469
		c-0.737,0.263-1.6,0.395-2.591,0.395c-2.853,0-4.774-1.038-5.764-3.118C0.277,23.529,0,21.84,0,19.606V7.834H5.178z"/>
	<path fill="#FFFFFF" d="M37.912,8.954c1.265,1.057,1.899,2.811,1.899,5.259v13.152h-5.178v-11.88c0-1.027-0.135-1.816-0.405-2.365
		c-0.493-1.003-1.432-1.505-2.816-1.505c-1.702,0-2.869,0.734-3.503,2.204c-0.329,0.776-0.493,1.768-0.493,2.974v10.572h-5.054
		V7.869h4.894v2.849c0.647-1.003,1.259-1.726,1.836-2.168c1.035-0.789,2.348-1.183,3.938-1.183
		C35.02,7.368,36.647,7.896,37.912,8.954z"/>
	<path fill="#FFFFFF" d="M54.76,8.147c0.91,0.52,1.649,1.239,2.216,2.159V0.989h5.125v26.375h-4.912v-2.706
		c-0.722,1.16-1.543,2.001-2.465,2.527c-0.922,0.525-2.069,0.787-3.44,0.787c-2.259,0-4.159-0.922-5.701-2.768
		c-1.543-1.846-2.314-4.214-2.314-7.104c0-3.333,0.759-5.955,2.279-7.866c1.519-1.911,3.549-2.867,6.091-2.867
		C52.809,7.368,53.849,7.628,54.76,8.147z M56.001,22.06c0.745-1.075,1.118-2.466,1.118-4.175c0-2.389-0.597-4.097-1.791-5.125
		c-0.734-0.621-1.585-0.932-2.554-0.932c-1.478,0-2.563,0.564-3.254,1.694c-0.692,1.129-1.038,2.53-1.038,4.202
		c0,1.804,0.352,3.246,1.055,4.327c0.703,1.081,1.77,1.621,3.201,1.621C54.168,23.672,55.256,23.136,56.001,22.06z"/>
	<path fill="#FFFFFF" d="M79.289,8.229c1.348,0.611,2.462,1.574,3.34,2.89c0.791,1.16,1.305,2.506,1.541,4.038
		c0.136,0.898,0.19,2.189,0.165,3.876H70.258c0.078,1.959,0.752,3.332,2.021,4.121c0.772,0.49,1.701,0.735,2.787,0.735
		c1.151,0,2.087-0.298,2.806-0.897c0.392-0.323,0.739-0.771,1.04-1.344h5.159c-0.136,1.16-0.761,2.335-1.873,3.531
		c-1.731,1.899-4.155,2.848-7.272,2.848c-2.572,0-4.842-0.801-6.808-2.403c-1.966-1.602-2.949-4.209-2.949-7.819
		c0-3.383,0.887-5.978,2.662-7.783c1.775-1.805,4.079-2.708,6.912-2.708C76.426,7.314,77.941,7.619,79.289,8.229z M71.729,12.641
		c-0.715,0.743-1.163,1.752-1.347,3.023h8.707c-0.092-1.356-0.541-2.385-1.346-3.087c-0.806-0.701-1.805-1.052-2.997-1.052
		C73.448,11.525,72.443,11.897,71.729,12.641z"/>
	<path fill="#FFFFFF" d="M97.63,7.377c0.064,0.006,0.21,0.016,0.434,0.028v5.231c-0.32-0.035-0.603-0.059-0.851-0.071
		c-0.249-0.012-0.45-0.019-0.604-0.019c-2.033,0-3.399,0.67-4.097,2.006c-0.39,0.753-0.585,1.912-0.585,3.477v9.335h-5.09V7.834
		h4.823v3.404c0.781-1.302,1.46-2.192,2.039-2.67c0.946-0.8,2.175-1.2,3.688-1.2C97.484,7.368,97.563,7.371,97.63,7.377z"/>
	<path fill="#FFFFFF" d="M111.274,8.147c0.91,0.52,1.649,1.239,2.216,2.159V0.989h5.125v26.375h-4.912v-2.706
		c-0.722,1.16-1.543,2.001-2.465,2.527c-0.922,0.525-2.069,0.787-3.439,0.787c-2.258,0-4.159-0.922-5.702-2.768
		c-1.543-1.846-2.313-4.214-2.313-7.104c0-3.333,0.759-5.955,2.278-7.866c1.519-1.911,3.549-2.867,6.091-2.867
		C109.323,7.368,110.364,7.628,111.274,8.147z M112.515,22.06c0.745-1.075,1.117-2.466,1.117-4.175c0-2.389-0.597-4.097-1.791-5.125
		c-0.734-0.621-1.585-0.932-2.553-0.932c-1.478,0-2.562,0.564-3.254,1.694c-0.692,1.129-1.038,2.53-1.038,4.202
		c0,1.804,0.352,3.246,1.055,4.327c0.703,1.081,1.77,1.621,3.201,1.621C110.683,23.672,111.771,23.136,112.515,22.06z"/>
	<path fill="#FFFFFF" d="M139.327,24.975c-1.63,2.035-4.108,3.052-7.429,3.052c-3.323,0-5.799-1.017-7.43-3.052
		c-1.631-2.034-2.448-4.484-2.448-7.349c0-2.817,0.816-5.258,2.448-7.322c1.632-2.064,4.107-3.097,7.43-3.097
		c3.321,0,5.799,1.032,7.429,3.097c1.632,2.065,2.448,4.506,2.448,7.322C141.775,20.49,140.96,22.94,139.327,24.975z
		 M135.285,22.153c0.791-1.061,1.188-2.57,1.188-4.527c0-1.956-0.397-3.462-1.188-4.517c-0.793-1.055-1.928-1.584-3.405-1.584
		c-1.479,0-2.616,0.528-3.415,1.584c-0.798,1.056-1.197,2.562-1.197,4.517c0,1.957,0.399,3.466,1.197,4.527
		c0.799,1.062,1.936,1.593,3.415,1.593C133.357,23.745,134.492,23.214,135.285,22.153z"/>
	<path fill="#FFFFFF" d="M154.954,7.815c1.227,0.515,2.219,1.458,2.975,2.832V7.834h4.929v18.527c0,2.521-0.42,4.42-1.258,5.699
		c-1.443,2.197-4.209,3.297-8.299,3.297c-2.472,0-4.487-0.491-6.048-1.47c-1.56-0.98-2.423-2.443-2.589-4.39h5.498
		c0.142,0.597,0.372,1.027,0.691,1.29c0.543,0.465,1.46,0.699,2.749,0.699c1.821,0,3.038-0.615,3.653-1.846
		c0.401-0.789,0.603-2.115,0.603-3.978v-1.254c-0.485,0.837-1.005,1.463-1.56,1.881c-1.005,0.777-2.312,1.165-3.919,1.165
		c-2.483,0-4.467-0.881-5.95-2.643c-1.484-1.762-2.225-4.148-2.225-7.158c0-2.902,0.713-5.342,2.143-7.32
		c1.428-1.976,3.453-2.965,6.074-2.965C153.39,7.368,154.234,7.517,154.954,7.815z M156.675,21.819
		c0.812-0.902,1.219-2.339,1.219-4.31c0-1.851-0.385-3.261-1.156-4.228c-0.772-0.968-1.803-1.452-3.099-1.452
		c-1.767,0-2.984,0.842-3.656,2.526c-0.353,0.896-0.529,2.002-0.529,3.316c0,1.135,0.188,2.144,0.564,3.028
		c0.683,1.649,1.907,2.473,3.673,2.473C154.868,23.172,155.863,22.72,156.675,21.819z"/>
	<path fill="#FFFFFF" d="M22.741,35.031v-0.023c0-2.201,1.697-4.004,4.017-4.004c1.379,0,2.211,0.376,3.01,1.061l-1.062,1.294
		c-0.591-0.497-1.116-0.785-2.003-0.785c-1.226,0-2.2,1.095-2.2,2.411v0.022c0,1.416,0.963,2.456,2.32,2.456
		c0.613,0,1.161-0.155,1.587-0.464v-1.107h-1.696v-1.471h3.327v3.363c-0.788,0.674-1.871,1.227-3.272,1.227
		C24.383,39.011,22.741,37.32,22.741,35.031z"/>
	<path fill="#FFFFFF" d="M33.412,31.137h1.685v6.194h3.821v1.549h-5.506V31.137z"/>
	<path fill="#FFFFFF" d="M41.161,35.031v-0.023c0-2.201,1.719-4.004,4.083-4.004c2.365,0,4.061,1.781,4.061,3.982v0.022
		c0,2.202-1.718,4.004-4.083,4.004C42.858,39.011,41.161,37.231,41.161,35.031z M47.543,35.031v-0.023
		c0-1.327-0.964-2.433-2.321-2.433s-2.298,1.084-2.298,2.411v0.022c0,1.328,0.963,2.433,2.32,2.433
		C46.601,37.441,47.543,36.357,47.543,35.031z"/>
	<path fill="#FFFFFF" d="M52.555,31.137h3.557c0.876,0,1.565,0.243,2.003,0.686c0.351,0.353,0.526,0.784,0.526,1.316v0.022
		c0,0.874-0.46,1.36-1.007,1.67c0.887,0.343,1.434,0.863,1.434,1.902v0.022c0,1.416-1.139,2.124-2.868,2.124h-3.645V31.137z
		 M55.751,34.266c0.744,0,1.215-0.243,1.215-0.818v-0.023c0-0.508-0.394-0.796-1.106-0.796h-1.664v1.636H55.751z M56.2,37.386
		c0.744,0,1.193-0.265,1.193-0.84v-0.022c0-0.52-0.383-0.841-1.247-0.841h-1.949v1.703H56.2z"/>
	<path fill="#FFFFFF" d="M64.835,31.082h1.555l3.284,7.797h-1.763l-0.701-1.737h-3.24l-0.701,1.737h-1.718L64.835,31.082z
		 M66.608,35.638l-1.018-2.511l-1.018,2.511H66.608z"/>
	<path fill="#FFFFFF" d="M72.605,31.137h1.685v6.194h3.82v1.549h-5.506V31.137z"/>
	<path fill="#FFFFFF" d="M85.64,37.751l0.996-1.206c0.69,0.576,1.413,0.94,2.288,0.94c0.689,0,1.105-0.276,1.105-0.73v-0.022
		c0-0.431-0.262-0.652-1.543-0.984c-1.543-0.398-2.54-0.83-2.54-2.367V33.36c0-1.404,1.117-2.334,2.682-2.334
		c1.118,0,2.07,0.354,2.847,0.985l-0.876,1.283c-0.678-0.476-1.347-0.763-1.992-0.763s-0.985,0.298-0.985,0.675v0.021
		c0,0.508,0.328,0.674,1.653,1.018c1.555,0.409,2.43,0.973,2.43,2.322v0.023c0,1.537-1.16,2.4-2.813,2.4
		C87.731,38.99,86.56,38.58,85.64,37.751z"/>
	<path fill="#FFFFFF" d="M94.922,31.137h3.13c1.829,0,2.934,1.095,2.934,2.676v0.023c0,1.792-1.379,2.721-3.098,2.721h-1.281v2.323
		h-1.685V31.137z M97.943,35.041c0.842,0,1.335-0.509,1.335-1.172v-0.022c0-0.763-0.526-1.172-1.368-1.172h-1.303v2.367H97.943z"/>
	<path fill="#FFFFFF" d="M103.645,35.031v-0.023c0-2.201,1.719-4.004,4.083-4.004c2.365,0,4.062,1.781,4.062,3.982v0.022
		c0,2.202-1.719,4.004-4.083,4.004C105.341,39.011,103.645,37.231,103.645,35.031z M110.027,35.031v-0.023
		c0-1.327-0.963-2.433-2.32-2.433c-1.357,0-2.299,1.084-2.299,2.411v0.022c0,1.328,0.963,2.433,2.32,2.433
		C109.085,37.441,110.027,36.357,110.027,35.031z"/>
	<path fill="#FFFFFF" d="M115.038,31.137h3.503c0.975,0,1.729,0.277,2.234,0.786c0.426,0.431,0.656,1.04,0.656,1.769v0.023
		c0,1.25-0.668,2.035-1.641,2.401l1.871,2.765h-1.971l-1.642-2.478h-1.324v2.478h-1.686V31.137z M118.432,34.897
		c0.821,0,1.292-0.442,1.292-1.095v-0.021c0-0.73-0.504-1.106-1.325-1.106h-1.675v2.222H118.432z"/>
	<path fill="#FFFFFF" d="M126.488,32.707h-2.332v-1.571h6.349v1.571h-2.331v6.172h-1.686V32.707z"/>
	<path fill="#FFFFFF" d="M132.857,37.751l0.996-1.206c0.689,0.576,1.412,0.94,2.287,0.94c0.69,0,1.106-0.276,1.106-0.73v-0.022
		c0-0.431-0.262-0.652-1.543-0.984c-1.544-0.398-2.54-0.83-2.54-2.367V33.36c0-1.404,1.117-2.334,2.682-2.334
		c1.117,0,2.069,0.354,2.846,0.985l-0.876,1.283c-0.679-0.476-1.347-0.763-1.992-0.763c-0.646,0-0.985,0.298-0.985,0.675v0.021
		c0,0.508,0.328,0.674,1.653,1.018c1.554,0.409,2.43,0.973,2.43,2.322v0.023c0,1.537-1.16,2.4-2.814,2.4
		C134.947,38.99,133.776,38.58,132.857,37.751z"/>
</g>
</svg>
