<?xml version="1.0" encoding="utf-8"?>
<!-- Generator: Adobe Illustrator 18.1.1, SVG Export Plug-In . SVG Version: 6.00 Build 0)  -->
<!DOCTYPE svg PUBLIC "-//W3C//DTD SVG 1.1//EN" "http://www.w3.org/Graphics/SVG/1.1/DTD/svg11.dtd">
<svg version="1.1" id="Layer_1" xmlns="http://www.w3.org/2000/svg" xmlns:xlink="http://www.w3.org/1999/xlink" x="0px" y="0px"
	 viewBox="-218 381 162.9 40" enable-background="new -218 381 162.9 40" xml:space="preserve">
<g>
	<path fill="#FFFFFF" d="M-212.8,390.7v11.8c0,1.1,0.1,1.9,0.4,2.5c0.5,1,1.4,1.5,2.7,1.5c1.7,0,2.9-0.7,3.5-2.1
		c0.3-0.8,0.5-1.8,0.5-3v-10.6h5.1v19.5h-4.9v-2.8c0,0.1-0.2,0.2-0.4,0.5c-0.2,0.3-0.4,0.6-0.7,0.8c-0.8,0.7-1.6,1.2-2.3,1.5
		c-0.7,0.3-1.6,0.4-2.6,0.4c-2.9,0-4.8-1-5.8-3.1c-0.6-1.1-0.8-2.8-0.8-5.1v-11.8H-212.8z"/>
	<path fill="#FFFFFF" d="M-180.1,391.8c1.3,1.1,1.9,2.8,1.9,5.3v13.2h-5.2v-11.9c0-1-0.1-1.8-0.4-2.4c-0.5-1-1.4-1.5-2.8-1.5
		c-1.7,0-2.9,0.7-3.5,2.2c-0.3,0.8-0.5,1.8-0.5,3v10.6h-5.1v-19.5h4.9v2.8c0.6-1,1.3-1.7,1.8-2.2c1-0.8,2.3-1.2,3.9-1.2
		C-183,390.2-181.4,390.7-180.1,391.8z"/>
	<path fill="#FFFFFF" d="M-163.2,391c0.9,0.5,1.6,1.2,2.2,2.2v-9.3h5.1v26.4h-4.9v-2.7c-0.7,1.2-1.5,2-2.5,2.5
		c-0.9,0.5-2.1,0.8-3.4,0.8c-2.3,0-4.2-0.9-5.7-2.8c-1.5-1.8-2.3-4.2-2.3-7.1c0-3.3,0.8-6,2.3-7.9c1.5-1.9,3.5-2.9,6.1-2.9
		C-165.2,390.2-164.2,390.5-163.2,391z M-162,404.9c0.7-1.1,1.1-2.5,1.1-4.2c0-2.4-0.6-4.1-1.8-5.1c-0.7-0.6-1.6-0.9-2.6-0.9
		c-1.5,0-2.6,0.6-3.3,1.7c-0.7,1.1-1,2.5-1,4.2c0,1.8,0.4,3.2,1.1,4.3c0.7,1.1,1.8,1.6,3.2,1.6C-163.8,406.5-162.7,406-162,404.9z"
		/>
	<path fill="#FFFFFF" d="M-138.7,391.1c1.3,0.6,2.5,1.6,3.3,2.9c0.8,1.2,1.3,2.5,1.5,4c0.1,0.9,0.2,2.2,0.2,3.9h-14.1
		c0.1,2,0.8,3.3,2,4.1c0.8,0.5,1.7,0.7,2.8,0.7c1.2,0,2.1-0.3,2.8-0.9c0.4-0.3,0.7-0.8,1-1.3h5.2c-0.1,1.2-0.8,2.3-1.9,3.5
		c-1.7,1.9-4.2,2.8-7.3,2.8c-2.6,0-4.8-0.8-6.8-2.4c-2-1.6-2.9-4.2-2.9-7.8c0-3.4,0.9-6,2.7-7.8c1.8-1.8,4.1-2.7,6.9-2.7
		C-141.6,390.1-140.1,390.4-138.7,391.1z M-146.3,395.5c-0.7,0.7-1.2,1.8-1.3,3h8.7c-0.1-1.4-0.5-2.4-1.3-3.1
		c-0.8-0.7-1.8-1.1-3-1.1C-144.6,394.4-145.6,394.7-146.3,395.5z"/>
	<path fill="#FFFFFF" d="M-120.4,390.2c0.1,0,0.2,0,0.4,0v5.2c-0.3,0-0.6-0.1-0.9-0.1c-0.2,0-0.4,0-0.6,0c-2,0-3.4,0.7-4.1,2
		c-0.4,0.8-0.6,1.9-0.6,3.5v9.3h-5.1v-19.5h4.8v3.4c0.8-1.3,1.5-2.2,2-2.7c0.9-0.8,2.2-1.2,3.7-1.2
		C-120.5,390.2-120.4,390.2-120.4,390.2z"/>
	<path fill="#FFFFFF" d="M-106.7,391c0.9,0.5,1.6,1.2,2.2,2.2v-9.3h5.1v26.4h-4.9v-2.7c-0.7,1.2-1.5,2-2.5,2.5
		c-0.9,0.5-2.1,0.8-3.4,0.8c-2.3,0-4.2-0.9-5.7-2.8c-1.5-1.8-2.3-4.2-2.3-7.1c0-3.3,0.8-6,2.3-7.9s3.5-2.9,6.1-2.9
		C-108.7,390.2-107.6,390.5-106.7,391z M-105.5,404.9c0.7-1.1,1.1-2.5,1.1-4.2c0-2.4-0.6-4.1-1.8-5.1c-0.7-0.6-1.6-0.9-2.6-0.9
		c-1.5,0-2.6,0.6-3.3,1.7c-0.7,1.1-1,2.5-1,4.2c0,1.8,0.4,3.2,1.1,4.3s1.8,1.6,3.2,1.6C-107.3,406.5-106.2,406-105.5,404.9z"/>
	<path fill="#FFFFFF" d="M-78.7,407.8c-1.6,2-4.1,3.1-7.4,3.1c-3.3,0-5.8-1-7.4-3.1c-1.6-2-2.4-4.5-2.4-7.3c0-2.8,0.8-5.3,2.4-7.3
		c1.6-2.1,4.1-3.1,7.4-3.1c3.3,0,5.8,1,7.4,3.1c1.6,2.1,2.4,4.5,2.4,7.3C-76.2,403.3-77,405.8-78.7,407.8z M-82.7,405
		c0.8-1.1,1.2-2.6,1.2-4.5c0-2-0.4-3.5-1.2-4.5c-0.8-1.1-1.9-1.6-3.4-1.6c-1.5,0-2.6,0.5-3.4,1.6c-0.8,1.1-1.2,2.6-1.2,4.5
		c0,2,0.4,3.5,1.2,4.5c0.8,1.1,1.9,1.6,3.4,1.6C-84.6,406.6-83.5,406-82.7,405z"/>
	<path fill="#FFFFFF" d="M-63,390.6c1.2,0.5,2.2,1.5,3,2.8v-2.8h4.9v18.5c0,2.5-0.4,4.4-1.3,5.7c-1.4,2.2-4.2,3.3-8.3,3.3
		c-2.5,0-4.5-0.5-6-1.5c-1.6-1-2.4-2.4-2.6-4.4h5.5c0.1,0.6,0.4,1,0.7,1.3c0.5,0.5,1.5,0.7,2.7,0.7c1.8,0,3-0.6,3.7-1.8
		c0.4-0.8,0.6-2.1,0.6-4v-1.3c-0.5,0.8-1,1.5-1.6,1.9c-1,0.8-2.3,1.2-3.9,1.2c-2.5,0-4.5-0.9-5.9-2.6c-1.5-1.8-2.2-4.1-2.2-7.2
		c0-2.9,0.7-5.3,2.1-7.3c1.4-2,3.5-3,6.1-3C-64.6,390.2-63.8,390.3-63,390.6z M-61.3,404.6c0.8-0.9,1.2-2.3,1.2-4.3
		c0-1.9-0.4-3.3-1.2-4.2c-0.8-1-1.8-1.5-3.1-1.5c-1.8,0-3,0.8-3.7,2.5c-0.4,0.9-0.5,2-0.5,3.3c0,1.1,0.2,2.1,0.6,3
		c0.7,1.6,1.9,2.5,3.7,2.5C-63.1,406-62.1,405.5-61.3,404.6z"/>
</g>
</svg>
