<?xml version="1.0" encoding="utf-8"?>
<!-- Generator: Adobe Illustrator 17.0.0, SVG Export Plug-In . SVG Version: 6.00 Build 0)  -->
<!DOCTYPE svg PUBLIC "-//W3C//DTD SVG 1.1//EN" "http://www.w3.org/Graphics/SVG/1.1/DTD/svg11.dtd">
<svg version="1.1" id="Layer_1" xmlns="http://www.w3.org/2000/svg" xmlns:xlink="http://www.w3.org/1999/xlink" x="0px" y="0px"
	 width="62px" height="45px" viewBox="0 0 62 45" enable-background="new 0 0 62 45" xml:space="preserve">
<path fill="#FFFFFF" d="M39.042,0.83v8.428h12.506h0.004v0.2c0,8.699-1.278,14.807-3.908,18.672
	c-0.941,1.384-3.563,5.234-12.382,6.191c-0.05,0.005-0.1,0.011-0.151,0.016c-0.311,0.032-0.629,0.061-0.956,0.086
	c-0.382,0.028-0.77,0.052-1.165,0.07c-0.154,0.007-0.312,0.012-0.469,0.018c-0.499,0.016-1.003,0.029-1.522,0.029
	c-0.519,0-1.023-0.012-1.522-0.029c-0.157-0.005-0.315-0.011-0.469-0.018c-0.396-0.018-0.783-0.042-1.165-0.07
	c-0.326-0.025-0.645-0.054-0.956-0.086c-0.05-0.005-0.101-0.011-0.151-0.016c-8.819-0.957-11.44-4.808-12.382-6.191
	c-2.63-3.865-3.908-9.973-3.908-18.672v-0.2h0.004h12.506V0.83H0.916v8.428v0.2c0,0.734,0.01,1.47,0.026,2.207
	c0.322,15.117,4.286,30.526,25.722,32.328c0.144,0.012,0.296,0.017,0.441,0.028c0.543,0.041,1.088,0.08,1.653,0.104
	c0.729,0.031,1.475,0.046,2.241,0.046c0.766,0,1.512-0.015,2.241-0.046c0.566-0.023,1.11-0.063,1.653-0.104
	c0.145-0.011,0.298-0.016,0.441-0.028c21.437-1.802,25.401-17.21,25.722-32.328c0.016-0.737,0.026-1.473,0.026-2.207v-0.2V0.83
	H39.042z"/>
<path fill="#FFFFFF" d="M42.021,15.879l-4.17,4.214h4.17V15.879z"/>
<path fill="#FFFFFF" d="M23.553,24.306h14.893v-1.204H23.553V24.306z"/>
<path fill="#FFFFFF" d="M22.856,15.879l-1.264,1.277l-1.264-1.277l-0.842,0.851l1.264,1.277l-1.264,1.277l0.842,0.851l1.264-1.277
	l1.264,1.277l0.843-0.851l-1.264-1.277l1.264-1.277L22.856,15.879z"/>
</svg>
